<svg width="350" height="48" viewBox="0 0 350 48" fill="none" xmlns="http://www.w3.org/2000/svg">
<path d="M222.86 33.5324V38.8934H200.465V9.10986H206.466V33.5324H222.86Z" fill="white"/>
<path d="M73.695 9.10986V38.8934H88.6954C92.6737 38.8934 96.4892 37.3245 99.3023 34.5317C102.115 31.739 103.696 27.9512 103.696 24.0016C103.696 20.0521 102.115 16.2643 99.3023 13.4716C96.4892 10.6788 92.6737 9.10986 88.6954 9.10986H73.695ZM87.6919 32.9471H79.6862V15.0576H87.6874C90.0744 15.0576 92.3636 15.999 94.0515 17.6747C95.7394 19.3503 96.6876 21.623 96.6876 23.9927C96.6876 26.3624 95.7394 28.6351 94.0515 30.3108C92.3636 31.9864 90.0744 32.9278 87.6874 32.9278L87.6919 32.9471Z" fill="white"/>
<path d="M349.929 22.5412C349.563 18.8115 347.813 15.3502 345.019 12.83C342.226 10.3098 338.588 8.91075 334.813 8.90479C334.32 8.90479 333.82 8.9301 333.325 8.97776C329.817 9.31593 326.537 10.8536 324.044 13.3277C321.552 15.8018 320.003 19.0586 319.663 22.5412C319.613 23.0445 319.591 23.5225 319.591 24.0021C319.592 27.3775 320.734 30.6549 322.832 33.3109C324.93 35.9669 327.864 37.848 331.166 38.6539C334.468 39.4598 337.946 39.144 341.046 37.7567C344.146 36.3695 346.687 33.991 348.266 31.0012H341.26C339.627 32.6853 337.392 33.6642 335.038 33.7263C332.685 33.7885 330.4 32.9289 328.68 31.3333C328.53 31.1948 328.387 31.0518 328.252 30.9089C327.396 30.019 326.717 28.9767 326.251 27.8367L326.084 27.4272H349.605C349.867 26.3041 350 25.1549 350 24.0021C350.003 23.5166 349.976 23.0267 349.929 22.5412ZM343.686 22.8092H325.571L325.607 22.4801C325.848 20.2293 326.918 18.1461 328.612 16.6313C330.306 15.1166 332.505 14.2772 334.785 14.2748C335.114 14.2745 335.443 14.2914 335.77 14.3254C337.872 14.547 339.834 15.4774 341.329 16.9613C342.824 18.4453 343.761 20.3932 343.984 22.4801L344.019 22.8092H343.686Z" fill="white"/>
<path d="M196.261 22.5412C195.895 18.8115 194.146 15.35 191.352 12.8297C188.559 10.3094 184.921 8.91045 181.146 8.90479C180.653 8.90479 180.153 8.9301 179.658 8.97776C176.15 9.31615 172.87 10.8538 170.377 13.3279C167.885 15.8019 166.336 19.0586 165.995 22.5412C165.947 23.0445 165.922 23.5225 165.922 24.0021C165.925 27.3772 167.067 30.654 169.166 33.3093C171.264 35.9647 174.198 37.8453 177.5 38.6509C180.801 39.4565 184.28 39.1407 187.379 37.7538C190.478 36.3669 193.02 33.989 194.599 30.9997H187.594C185.96 32.6838 183.726 33.6627 181.372 33.7248C179.018 33.787 176.734 32.9274 175.013 31.3318C174.863 31.1933 174.713 31.0503 174.585 30.9074C173.729 30.0179 173.05 28.9755 172.584 27.8352L172.418 27.4257H195.938C196.201 26.3027 196.333 25.1534 196.331 24.0006C196.331 23.5166 196.309 23.0267 196.261 22.5412ZM190.019 22.8092H171.905L171.939 22.4801C172.18 20.2293 173.251 18.1463 174.945 16.6316C176.639 15.1169 178.838 14.2775 181.118 14.2748C181.447 14.2745 181.776 14.2914 182.103 14.3254C184.206 14.547 186.168 15.4774 187.662 16.9613C189.157 18.4453 190.094 20.3932 190.318 22.4801L190.352 22.8092H190.019Z" fill="white"/>
<path d="M136.582 22.5412C136.215 18.8117 134.466 15.3506 131.672 12.8305C128.879 10.3103 125.242 8.91112 121.467 8.90479C120.974 8.90479 120.473 8.9301 119.978 8.97776C116.47 9.31593 113.189 10.8536 110.697 13.3277C108.205 15.8018 106.656 19.0586 106.315 22.5412C106.266 23.0445 106.243 23.5225 106.243 24.0021C106.245 27.3775 107.386 30.6549 109.484 33.3109C111.583 35.9669 114.517 37.848 117.819 38.6539C121.12 39.4598 124.599 39.144 127.698 37.7567C130.798 36.3695 133.34 33.991 134.918 31.0012H127.913C126.28 32.6853 124.045 33.6642 121.691 33.7263C119.337 33.7885 117.053 32.9289 115.332 31.3333C115.182 31.1948 115.032 31.0518 114.904 30.9089C114.049 30.0193 113.37 28.9769 112.905 27.8367L112.737 27.4257H136.259C136.52 26.3024 136.652 25.1534 136.652 24.0006C136.652 23.5166 136.628 23.0267 136.582 22.5412ZM130.338 22.8092H112.224L112.26 22.4801C112.5 20.2293 113.57 18.1461 115.264 16.6313C116.959 15.1166 119.157 14.2772 121.437 14.2748C121.766 14.2745 122.095 14.2914 122.423 14.3254C124.525 14.547 126.487 15.4774 127.982 16.9613C129.477 18.4453 130.414 20.3932 130.637 22.4801L130.671 22.8092H130.338Z" fill="white"/>
<path d="M166.305 9.10986L157.304 38.8934H145.304L136.304 9.10986H143.103L151.306 36.2516L159.505 9.10986H166.305Z" fill="white"/>
<path d="M253.25 9.10986V38.8934H247.249V26.98H233.796V38.8934H227.795V9.10986H233.796V21.0233H247.249V9.10986H253.25Z" fill="white"/>
<path d="M313.97 12.1597C312.996 11.1903 311.838 10.4218 310.564 9.89835C309.29 9.37492 307.924 9.10696 306.544 9.10989H291.544V38.8919H297.544V29.9569H306.544C308.621 29.9573 310.652 29.3462 312.379 28.2009C314.106 27.0556 315.452 25.4275 316.247 23.5226C317.042 21.6177 317.25 19.5215 316.845 17.4991C316.44 15.4768 315.44 13.6192 313.971 12.1612L313.97 12.1597ZM309.501 23.2139C309.015 23.6986 308.437 24.0833 307.801 24.346C307.164 24.6087 306.482 24.7442 305.793 24.7448H297.543V14.3205H305.793C306.831 14.3213 307.846 14.6276 308.708 15.2007C309.571 15.7737 310.243 16.5878 310.64 17.5401C311.037 18.4923 311.141 19.54 310.938 20.5507C310.735 21.5614 310.235 22.4897 309.501 23.2184V23.2139Z" fill="white"/>
<path d="M272.534 8.60501C269.467 8.60501 266.469 9.50778 263.92 11.1992C261.37 12.8905 259.383 15.2945 258.209 18.1072C257.036 20.9198 256.729 24.0147 257.327 27.0005C257.926 29.9864 259.402 32.729 261.571 34.8816C263.739 37.0341 266.502 38.5 269.51 39.0937C272.517 39.6875 275.635 39.3824 278.468 38.2172C281.301 37.052 283.722 35.0789 285.426 32.5475C287.129 30.0161 288.038 27.04 288.038 23.9957C288.038 19.9134 286.404 15.9984 283.497 13.1118C280.589 10.2252 276.646 8.60352 272.534 8.60352V8.60501ZM272.534 33.4266C270.654 33.5273 268.787 33.0724 267.168 32.1196C265.549 31.1667 264.251 29.7586 263.438 28.0734C262.625 26.3882 262.334 24.5016 262.601 22.652C262.868 20.8024 263.682 19.0731 264.939 17.6825C266.196 16.292 267.84 15.3028 269.664 14.84C271.487 14.3772 273.408 14.4616 275.183 15.0825C276.958 15.7034 278.508 16.833 279.637 18.3283C280.765 19.8236 281.422 21.6176 281.523 23.4834C281.532 23.6531 281.537 23.8229 281.537 23.9927C281.601 26.4285 280.689 28.7901 279.001 30.559C277.313 32.3278 274.987 33.3592 272.534 33.4266Z" fill="white"/>
<path d="M24.8434 0C11.1204 0 0 10.7429 0 24C0 37.2571 11.1204 48 24.8434 48C38.5665 48 49.6868 37.2571 49.6868 24C49.6868 10.7429 38.5665 0 24.8434 0ZM35.5013 26.2857H31.9522C30.6972 26.2857 29.4935 26.7673 28.6061 27.6247C27.7187 28.482 27.2201 29.6447 27.2201 30.8571H22.488C22.488 29.6447 21.9895 28.482 21.102 27.6247C20.2146 26.7673 19.011 26.2857 17.7559 26.2857H14.2069C12.1087 26.2857 10.07 25.6122 8.41127 24.3709C6.75252 23.1297 5.56776 21.3911 5.04322 19.4286H10.1065C10.5219 20.1235 11.1192 20.7006 11.8386 21.1018C12.5579 21.503 13.3739 21.7143 14.2045 21.7143H17.7536C19.0965 21.7127 20.4243 21.988 21.6484 22.5217C22.8724 23.0554 23.9645 23.8352 24.8517 24.8091C25.7391 23.8355 26.8312 23.0558 28.0552 22.5221C29.2792 21.9884 30.6069 21.713 31.9498 21.7143H35.4989C36.3297 21.7145 37.146 21.5033 37.8655 21.1021C38.5851 20.7009 39.1826 20.1237 39.5981 19.4286H44.6649C44.1391 21.3911 42.9535 23.1294 41.2943 24.3705C39.6351 25.6117 37.5962 26.2853 35.4977 26.2857H35.5013Z" fill="white"/>
</svg>
