<svg width="662" height="1679" viewBox="0 0 662 1679" fill="none" xmlns="http://www.w3.org/2000/svg">
<path d="M405.5 682L11 1674.5" stroke="url(#paint0_radial_4629_2095)" stroke-width="23"/>
<path style="mix-blend-mode:screen" d="M340.865 898.417C334.535 896.887 328.499 894.327 323 890.837L333.953 870.035C338.887 873.18 344.237 875.619 349.848 877.281C355.325 878.89 361.003 879.711 366.711 879.718C370.986 879.933 375.252 879.144 379.167 877.415C380.454 876.898 381.561 876.015 382.35 874.876C383.14 873.736 383.577 872.39 383.608 871.004C383.565 869.795 383.16 868.626 382.446 867.65C381.731 866.674 380.74 865.934 379.601 865.528C375.583 863.757 371.414 862.349 367.146 861.32C361.723 859.941 356.392 858.224 351.184 856.178C346.968 854.445 343.233 851.719 340.298 848.231C337.114 844.258 335.487 839.26 335.723 834.174C335.633 827.561 337.683 821.096 341.567 815.742C345.719 810.165 351.37 805.881 357.862 803.388C365.849 800.325 374.355 798.84 382.907 799.014C389.536 798.976 396.147 799.704 402.609 801.184C408.152 802.427 413.461 804.546 418.337 807.461L408.319 828.13C404.4 825.601 400.122 823.676 395.63 822.42C390.967 821.177 386.163 820.549 381.338 820.551C376.85 820.314 372.378 821.234 368.348 823.222C366.996 823.81 365.837 824.768 365.005 825.984C364.172 827.201 363.699 828.627 363.639 830.1C363.664 831.371 364.086 832.602 364.847 833.62C365.608 834.639 366.668 835.393 367.88 835.777C371.96 837.575 376.196 838.995 380.536 840.017C385.918 841.291 391.206 842.931 396.364 844.926C400.517 846.611 404.204 849.267 407.117 852.672C410.25 856.501 411.856 861.354 411.625 866.295C411.724 872.889 409.673 879.336 405.781 884.66C401.48 890.242 395.694 894.501 389.085 896.948C381.118 900.001 372.637 901.487 364.107 901.322C356.265 901.386 348.45 900.409 340.865 898.417Z" fill="url(#paint1_linear_4629_2095)"/>
<path style="mix-blend-mode:screen" d="M378.533 715L316.789 813.435H289.373L267 715H295.551L309.609 778.976L349.848 715H378.533Z" fill="url(#paint2_linear_4629_2095)"/>
<path d="M650.5 5L256 997.5" stroke="url(#paint3_radial_4629_2095)" stroke-width="23"/>
<defs>
<radialGradient id="paint0_radial_4629_2095" cx="0" cy="0" r="1" gradientUnits="userSpaceOnUse" gradientTransform="translate(406 682.5) rotate(111.712) scale(1067.75 424.41)">
<stop stop-color="#82FFDE" stop-opacity="0.1"/>
<stop offset="0.0778388" stop-color="#4FFCCE" stop-opacity="0.2"/>
<stop offset="0.187549" stop-color="#08F7B7" stop-opacity="0.25"/>
<stop offset="0.502593" stop-color="#A2F6E0"/>
<stop offset="0.793996" stop-color="#36C9A2" stop-opacity="0.25"/>
<stop offset="0.897069" stop-color="#1BE4AF" stop-opacity="0.2"/>
<stop offset="1" stop-color="#00FFBB" stop-opacity="0.1"/>
</radialGradient>
<linearGradient id="paint1_linear_4629_2095" x1="397.066" y1="886.864" x2="337.666" y2="801.781" gradientUnits="userSpaceOnUse">
<stop offset="0.13" stop-color="white"/>
<stop offset="0.18" stop-color="#F7FEFE"/>
<stop offset="0.24" stop-color="#E1FAFB"/>
<stop offset="0.32" stop-color="#BEF3F6"/>
<stop offset="0.41" stop-color="#8CEAEF"/>
<stop offset="0.51" stop-color="#4DDEE6"/>
<stop offset="0.62" stop-color="#00D0DB"/>
<stop offset="0.66" stop-color="#00C1CC"/>
<stop offset="0.74" stop-color="#009BA3"/>
<stop offset="0.85" stop-color="#005D61"/>
<stop offset="0.99" stop-color="#000808"/>
<stop offset="1"/>
</linearGradient>
<linearGradient id="paint2_linear_4629_2095" x1="249.535" y1="795.371" x2="361.73" y2="712.855" gradientUnits="userSpaceOnUse">
<stop offset="0.13" stop-color="white"/>
<stop offset="0.21" stop-color="#FDF7F7"/>
<stop offset="0.32" stop-color="#F8E1E1"/>
<stop offset="0.46" stop-color="#F1BEBE"/>
<stop offset="0.63" stop-color="#E68C8C"/>
<stop offset="0.81" stop-color="#D84D4D"/>
<stop offset="1" stop-color="#C70000"/>
</linearGradient>
<radialGradient id="paint3_radial_4629_2095" cx="0" cy="0" r="1" gradientUnits="userSpaceOnUse" gradientTransform="translate(651 5.49995) rotate(111.712) scale(1067.75 424.41)">
<stop stop-color="#FF82E3" stop-opacity="0.1"/>
<stop offset="0.140625" stop-color="#FF82E3" stop-opacity="0.2"/>
<stop offset="0.270833" stop-color="#FF82E3" stop-opacity="0.25"/>
<stop offset="0.416667" stop-color="#FF82E3" stop-opacity="0.25"/>
<stop offset="0.666667" stop-color="#FF82E3"/>
<stop offset="0.854167" stop-color="#FF82E3" stop-opacity="0.2"/>
<stop offset="1" stop-color="#FF82E3" stop-opacity="0.1"/>
</radialGradient>
</defs>
</svg>
