<svg width="335" height="472" viewBox="0 0 335 472" fill="none" xmlns="http://www.w3.org/2000/svg">
<g clip-path="url(#clip0_4604_719)">
<path style="mix-blend-mode:multiply" opacity="0.5" d="M174.074 472.324C223.595 472.324 263.739 463.391 263.739 452.372C263.739 441.352 223.595 432.419 174.074 432.419C124.554 432.419 84.4097 441.352 84.4097 452.372C84.4097 463.391 124.554 472.324 174.074 472.324Z" fill="url(#paint0_radial_4604_719)"/>
<path d="M158.969 411.369C156.77 412.248 78.561 420.158 69.3043 411.369C60.0476 402.579 122.074 364.52 131.089 365.223C133.288 365.399 135.069 367.575 138.389 372.387C148.657 387.044 158.969 411.369 158.969 411.369Z" fill="url(#paint1_linear_4604_719)"/>
<path d="M131.089 365.202C127.065 365.729 141.181 406.139 158.969 411.347C158.969 411.369 141.709 363.839 131.089 365.202Z" fill="url(#paint2_linear_4604_719)"/>
<path style="mix-blend-mode:multiply" opacity="0.3" d="M158.969 411.369C156.77 412.248 79.0008 419.675 69.3043 411.369C69.3043 411.369 92.2372 415.192 113.125 407.963C134.013 400.733 134.453 382.495 134.453 382.495L135.706 367.113C145.974 381.858 158.969 411.369 158.969 411.369Z" fill="url(#paint3_linear_4604_719)"/>
<path d="M76.5601 344.172C76.5601 344.172 72.7563 326.088 89.2469 306.817C110.619 281.81 155.209 263.33 162.663 266.758C170.117 270.186 145.732 309.453 145.732 309.453C145.732 309.453 114.95 317.232 98.5915 336.174C82.2329 355.115 76.5601 344.172 76.5601 344.172Z" fill="url(#paint4_linear_4604_719)"/>
<path d="M234.671 368.212C232.473 385.791 224.447 399.569 210.705 407.062C201.492 412.072 189.751 414.291 175.525 412.863C154.549 410.665 141.731 395.042 136.102 373.639C133.525 363.372 132.386 352.797 132.716 342.217C133.507 306.092 152.636 277.635 165.807 268.78C187.618 254.123 218.445 262.583 221.897 288.315C224.689 308.97 238.255 338.899 234.671 368.212Z" fill="url(#paint5_linear_4604_719)"/>
<path d="M215.257 274.339C211.585 272.867 209.43 306.905 224.513 326.769C224.513 326.769 231.373 322.374 228.405 305.696C225.437 289.018 220.204 276.339 215.257 274.339Z" fill="url(#paint6_linear_4604_719)"/>
<path d="M212.574 286.776C212.574 286.776 226.228 306.113 221.809 322.792C221.809 322.792 213.146 309.783 212.574 286.776Z" fill="#6340A2"/>
<path d="M210.705 407.062C201.493 412.072 189.751 414.291 175.525 412.863C154.549 410.666 141.731 395.042 136.102 373.639C130.231 349.995 140.873 318.507 172.821 318.507C204.769 318.507 220.49 351.336 222.051 374.343C222.688 383.44 221.633 401.656 210.705 407.062Z" fill="url(#paint7_radial_4604_719)"/>
<path d="M274.996 400.008C275.428 404.015 274.298 408.035 271.841 411.231C269.385 414.427 265.79 416.554 261.804 417.17C253.84 418.104 245.791 418.06 237.838 417.038H237.266C225.657 415.785 214.575 413.171 214.003 409.193C213.616 406.472 213.462 403.723 213.542 400.975C213.806 377.858 227.218 351.841 235.771 353.621C241.048 354.72 248.722 359.818 255.867 366.806C261.832 372.403 266.884 378.898 270.841 386.055C273.245 390.34 274.665 395.106 274.996 400.008Z" fill="url(#paint8_linear_4604_719)"/>
<path style="mix-blend-mode:multiply" opacity="0.5" d="M255.889 366.674C255.889 366.674 239.575 362.037 226.69 372.673C217.565 380.188 214.971 395.987 213.498 400.931C213.762 377.814 227.174 351.797 235.727 353.577C241.07 354.676 248.743 359.774 255.889 366.674Z" fill="url(#paint9_linear_4604_719)"/>
<path d="M270.819 331.493C269.324 339.668 251.8 351.687 222.183 349.556C222.183 349.556 208.067 338.173 209.452 325.692C209.452 325.692 210.727 325.187 212.486 324.308C215.96 322.572 226.998 318.331 228.097 314.617C230.296 307.52 222.688 297.697 218.159 287.414C213.981 277.899 217.17 269.571 219.368 269.109C221.567 268.648 235.859 273.504 250.019 286.689C251.47 288.029 252.833 289.391 254.086 290.732C269.807 307.52 272.204 323.934 270.819 331.493Z" fill="url(#paint10_linear_4604_719)"/>
<path d="M212.025 325.516C205.146 320.622 197.873 316.308 190.279 312.618C190.279 312.618 181.484 314.332 179.813 319.078C178.142 323.824 197.601 333.053 197.601 333.053L212.025 325.516Z" fill="url(#paint11_linear_4604_719)"/>
<path d="M84.8274 327.209C84.8274 327.209 92.479 312.508 98.5695 310.618C104.66 308.729 108.442 309.476 109.563 310.618C110.685 311.761 110.685 317.474 108.288 321.957C105.891 326.44 96.1289 331.494 96.1289 331.494L84.8274 327.209Z" fill="url(#paint12_linear_4604_719)"/>
<path d="M97.4922 311.079C98.2527 313.879 100.033 316.293 102.483 317.847C104.479 319.119 106.885 319.583 109.211 319.144C109.211 319.144 112.663 311.782 108.86 309.453C105.54 307.432 98.3277 309.673 97.4922 311.079Z" fill="url(#paint13_linear_4604_719)"/>
<path d="M201.69 380.451C191.422 384.473 174.316 366.762 163.542 360.345C152.768 353.929 133.771 351.885 125.174 355.533C116.577 359.181 103.561 374.892 91.7974 372.87C89.5986 372.497 88.917 367.047 89.3787 359.554C90.3242 344.041 96.3927 319.781 105.847 313.783C119.919 304.993 176.735 307.19 190.213 319.803C197.403 326.549 202.24 342.59 204.087 356.456C205.692 368.542 205.032 379.023 201.69 380.451Z" fill="url(#paint14_linear_4604_719)"/>
<path style="mix-blend-mode:multiply" opacity="0.5" d="M201.69 380.451C191.422 384.472 174.316 366.762 163.542 360.345C152.768 353.929 133.771 351.885 125.174 355.533C116.577 359.181 103.561 374.892 91.7974 372.87C89.5986 372.497 88.917 367.047 89.3787 359.554L92.5449 354.083L113.983 341.03C113.983 341.03 114.181 348.787 116.181 349.82C118.182 350.852 125.614 349.226 139.62 349.094C153.626 348.963 164.51 356.104 171.106 351.951C177.702 347.798 182.495 337.69 182.495 337.69L188.652 337.009L204.043 356.456C205.692 368.541 205.032 379.023 201.69 380.451Z" fill="url(#paint15_linear_4604_719)"/>
<path d="M83.5521 322.792C83.5521 322.792 97.0744 321.913 112.905 333.515C112.905 333.515 117.303 349.732 108.2 359.884C103.004 362.587 97.3936 364.406 91.5995 365.267C81.8151 366.674 83.5521 322.792 83.5521 322.792Z" fill="url(#paint16_linear_4604_719)"/>
<path d="M209.452 325.692C213.18 325.833 216.823 326.839 220.094 328.632C223.365 330.424 226.173 332.954 228.295 336.02C233.902 344.7 225.261 349.732 225.261 349.732C225.261 349.732 210.419 348.699 209.452 325.692Z" fill="url(#paint17_linear_4604_719)"/>
<path d="M83.5521 322.792C77.3077 322.396 72.5584 352.149 78.7808 361.18C85.0033 370.211 100.482 362.894 103.297 359.686C106.111 356.478 110.465 342.26 108.816 336.459C107.167 330.658 98.9433 323.758 83.5521 322.792Z" fill="url(#paint18_linear_4604_719)"/>
<path d="M108.222 312.574C108.222 312.574 107.079 319.957 131.045 322.968C155.011 325.978 177.218 324.176 185.552 316.661C185.552 316.727 146.678 301.169 108.222 312.574Z" fill="url(#paint19_linear_4604_719)"/>
<path d="M55.5622 404.381C37.9723 404.381 11.1476 403.04 3.73787 395.284C2.99923 394.561 2.4306 393.684 2.07313 392.715C1.71567 391.745 1.57833 390.709 1.67106 389.68C2.59453 380.715 16.5345 375.815 31.3101 370.651C46.0856 365.487 60.9271 360.257 63.0819 351.248C64.4671 345.425 62.3783 338.327 60.3554 331.471C57.7169 322.506 54.9905 313.255 59.4539 305.916C62.818 300.378 69.854 296.643 80.9576 294.489C123.283 286.293 143.424 308.487 143.622 308.728L141.907 310.223C141.731 310.003 122.36 288.776 81.3974 296.731C70.9534 298.752 64.4011 302.136 61.3888 307.08C57.4531 313.672 59.9157 321.957 62.5322 330.834C64.7309 337.998 66.8197 345.403 65.2806 351.797C62.84 362.015 47.185 367.509 32.0576 372.804C18.6014 377.529 4.70532 382.407 3.93576 389.922C3.88761 390.61 3.99281 391.3 4.24376 391.942C4.4947 392.584 4.88515 393.162 5.38693 393.636C15.699 404.447 70.6016 401.678 71.1512 401.656L71.2832 403.853C70.5136 404.051 64.1592 404.381 55.5622 404.381Z" fill="url(#paint20_linear_4604_719)"/>
<path style="mix-blend-mode:multiply" opacity="0.5" d="M136.124 273.768C136.124 273.768 149.185 294.907 174.58 293.962C199.975 293.017 213.52 270.845 213.52 270.845L139.642 272.23L136.124 273.768Z" fill="url(#paint21_linear_4604_719)"/>
<path d="M239.157 113.534C239.157 113.534 252.921 101.668 269.741 99.6245C269.741 99.6245 274.909 102.13 280.735 120.676C286.562 139.222 275.7 175.808 275.7 175.808L239.157 113.534Z" fill="url(#paint22_linear_4604_719)"/>
<path d="M269.741 99.6242C260.883 110.333 256.066 123.81 256.131 137.705L261.386 140.935L276.777 109.205C276.777 109.205 271.654 99.3386 269.741 99.6242Z" fill="url(#paint23_linear_4604_719)"/>
<path d="M260.902 139.419C260.902 139.419 257.253 119.357 270.445 104.59C270.445 104.59 285.396 111.622 291.575 137.705C297.753 163.788 281.659 179.456 281.659 179.456L260.902 139.419Z" fill="url(#paint24_linear_4604_719)"/>
<path d="M253.207 105.469C250.678 106.832 250.876 109.578 256.131 108.875C261.386 108.172 264.245 104.085 263.673 103.272C263.101 102.459 256.065 103.931 253.207 105.469Z" fill="white"/>
<path d="M123.789 116.5C123.789 116.5 109.937 104.656 93.2046 102.591C93.2046 102.591 88.0596 105.096 82.2109 123.642C76.3623 142.188 87.2461 178.774 87.2461 178.774L123.789 116.5Z" fill="url(#paint25_linear_4604_719)"/>
<path d="M93.2046 102.591C102.076 113.303 106.901 126.789 106.837 140.694L101.56 144.012L86.2126 112.369C86.2126 112.369 91.3137 102.305 93.2046 102.591Z" fill="url(#paint26_linear_4604_719)"/>
<path d="M102.066 142.408C102.066 142.408 105.671 122.324 92.4571 107.557C92.4571 107.557 77.5276 114.611 71.3492 140.694C69.5861 148.33 69.7246 156.282 71.7525 163.852C73.7804 171.422 77.6357 178.38 82.9805 184.114L102.066 142.408Z" fill="url(#paint27_linear_4604_719)"/>
<path d="M109.739 108.436C112.29 109.799 112.092 112.545 106.815 111.864C101.538 111.183 98.7014 107.052 99.2731 106.239C99.8447 105.426 106.903 106.898 109.739 108.436Z" fill="white"/>
<path d="M85.1572 243.51C106.221 292.072 263.893 276.932 282.714 236.918C303.426 193.387 255.955 85.5611 180.297 90.5931C116.533 94.7902 58.0687 181.06 85.1572 243.51Z" fill="url(#paint28_linear_4604_719)"/>
<path d="M93.8422 231.6C114.005 271.417 251.624 264.846 271.72 228.238C288.804 197.123 248.458 102.437 179.329 105.777C110.201 109.117 74.5153 193.365 93.8422 231.6Z" fill="url(#paint29_linear_4604_719)"/>
<path d="M202.658 99.6025C201.229 101.316 218.049 108.59 220.248 107.557C222.446 106.524 207.473 93.8673 202.658 99.6025Z" fill="white"/>
<path style="mix-blend-mode:screen" opacity="0.5" d="M118.116 145.704C116.533 155.196 134.519 154.12 163.3 153.175C197.865 152.032 232.605 181.741 252.811 160.426C256.153 156.91 223.04 110.721 183.089 111.754C143.138 112.787 119.502 137.485 118.116 145.704Z" fill="url(#paint30_linear_4604_719)"/>
<path style="mix-blend-mode:screen" opacity="0.5" d="M135.926 244.718C134.101 251.596 148.503 258.474 183.903 256.738C226.69 254.541 235.771 245.751 233.682 243.202C232.407 241.708 219.588 249.794 184.452 242.082C161.234 237.006 137.861 237.489 135.926 244.718Z" fill="url(#paint31_linear_4604_719)"/>
<path style="mix-blend-mode:screen" opacity="0.2" d="M97.69 223.338C96.7916 215.579 96.8803 207.738 97.9538 200.001C99.7128 186.619 103.319 178.027 105.452 179.17C107.584 180.313 107.255 193.497 108.53 206.418C109.519 216.46 111.454 225.887 111.454 225.887C111.454 225.887 102.197 234.742 97.69 223.338Z" fill="url(#paint32_linear_4604_719)"/>
<path style="mix-blend-mode:multiply" opacity="0.5" d="M100.636 259.88C100.636 259.88 102.835 257.683 114.203 250.871C121.854 246.476 129.902 241.049 131.023 239.093C132.738 234.501 98.2617 237.225 98.2617 237.225L85.0692 243.51C88.7768 250.204 94.1356 255.839 100.636 259.88Z" fill="url(#paint33_linear_4604_719)"/>
<path d="M74.2954 158.295C74.2954 158.295 83.2003 164.03 77.3736 177.258C77.3736 177.258 35.8174 199.892 38.2141 224.524C40.2149 245.092 97.58 235.138 97.58 235.138L99.6469 241.994C99.6469 241.994 50.8788 251.53 34.0585 240.082C34.0585 240.082 28.3197 226.502 42.5236 202.001C51.7112 186.464 62.3492 171.83 74.2954 158.295Z" fill="url(#paint34_linear_4604_719)"/>
<path d="M90.3682 233.226C85.1352 239.137 96.2388 245.619 105.364 246.608C115.61 247.729 133.793 243.663 132.694 233.424C131.595 223.184 102.637 219.36 90.3682 233.226Z" fill="url(#paint35_linear_4604_719)"/>
<path d="M91.0498 234.325C90.742 235.995 127.307 236.522 128.165 229.93C129.022 223.338 93.4684 221.272 91.0498 234.325Z" fill="url(#paint36_linear_4604_719)"/>
<path style="mix-blend-mode:screen" opacity="0.72" d="M282.626 116.369C282.626 116.369 277.789 110.37 271.171 111.974C264.552 113.578 264.135 134.365 268.092 134.893C272.05 135.42 273.699 123.378 276.733 121.488C279.342 120.338 282.222 119.942 285.045 120.346L282.626 116.369Z" fill="url(#paint37_linear_4604_719)"/>
<path style="mix-blend-mode:screen" opacity="0.72" d="M76.9559 125.246C76.9559 125.246 79.5065 122.346 85.2452 123.29C90.9839 124.235 94.26 135.969 97.1843 134.783C100.109 133.596 97.8879 114.567 90.1484 108.985C90.1484 108.985 80.1661 117.511 76.9559 125.246Z" fill="url(#paint38_linear_4604_719)"/>
<path d="M66.314 171.699C66.314 171.699 46.5253 194.771 47.7126 196.353C48.8999 197.936 67.5672 173.896 66.314 171.699Z" fill="url(#paint39_linear_4604_719)"/>
<path d="M208.638 194.156C212.244 201.781 243.664 202.77 248.721 190.728C253.251 179.917 239.157 151.175 220.402 153.878C206.198 155.834 202.57 181.28 208.638 194.156Z" fill="url(#paint40_radial_4604_719)"/>
<path d="M155.077 194.156C151.493 201.781 120.073 202.77 115.016 190.728C110.465 179.917 123.811 152.384 143.336 153.878C157.628 154.955 161.168 181.279 155.077 194.156Z" fill="url(#paint41_radial_4604_719)"/>
<path d="M207.5 214.259C207.5 214.259 199 222.802 179 224.302C158 224.302 158 215.302 158 215.302C180.5 216.302 189 215.302 207.5 214.259Z" fill="#2F95CD"/>
<path style="mix-blend-mode:multiply" opacity="0.3" d="M270.819 331.493C269.324 339.667 251.8 351.687 222.183 349.556C222.183 349.556 208.067 338.173 209.452 325.692C209.452 325.692 208.001 326.659 209.782 325.692L215.652 326.681C228.293 329.556 241.362 330.018 254.174 328.043C274.205 324.593 260.155 299.104 254.174 290.688C269.807 307.52 272.204 323.934 270.819 331.493Z" fill="url(#paint42_linear_4604_719)"/>
<path d="M224.645 352.786L224.359 352.918L223.59 353.203C223.547 353.218 223.501 353.218 223.458 353.203C222.051 353.753 219.5 354.763 216.444 356.082C214.971 356.697 213.366 357.422 211.739 358.169C206.442 360.726 201.303 363.595 196.347 366.761C196.347 366.761 180.714 359.576 179.835 350.127C179.263 343.535 183.243 333.91 188.146 328.153C189.787 325.884 192.092 324.18 194.742 323.275C199.779 322.547 204.918 323.208 209.606 325.187C212.762 325.24 215.838 326.184 218.48 327.911C221.122 329.637 223.221 332.075 224.535 334.943C225.925 337.709 226.658 340.757 226.677 343.852C226.696 346.946 226.001 350.003 224.645 352.786Z" fill="url(#paint43_linear_4604_719)"/>
<path d="M224.645 352.786L224.359 352.918L223.59 353.203C223.547 353.219 223.501 353.219 223.458 353.203C222.051 353.863 220.138 354.873 218.049 356.038C210.441 360.257 200.173 366.783 200.173 366.783H196.413C199.321 361.664 203.867 357.67 209.32 355.445C214.177 353.466 219.405 352.559 224.645 352.786Z" fill="url(#paint44_linear_4604_719)"/>
<path style="mix-blend-mode:screen" opacity="0.72" d="M152.9 398.272C156.009 401.91 159.827 404.876 164.122 406.988C168.417 409.1 173.098 410.314 177.878 410.555C194.654 411.742 202.262 407.04 202.262 407.04C201.186 405.309 199.741 403.837 198.031 402.728C196.321 401.619 194.387 400.901 192.368 400.623C185.2 399.437 176.977 405.567 169.127 404.513C163.391 403.409 157.897 401.296 152.9 398.272Z" fill="url(#paint45_linear_4604_719)"/>
<path style="mix-blend-mode:multiply" opacity="0.3" d="M274.996 400.008C275.428 404.015 274.298 408.035 271.841 411.231C269.384 414.427 265.79 416.554 261.804 417.17C253.84 418.104 245.791 418.06 237.838 417.038C240.762 417.258 254.35 418.115 257.406 414.533C260.858 410.512 261.056 403.81 264.948 400.931C268.84 398.052 272.534 400.184 273.743 399.986C274.16 399.949 274.581 399.957 274.996 400.008Z" fill="url(#paint46_linear_4604_719)"/>
<path d="M253.009 394.822C252.437 396.492 258.22 401.282 261.518 400.052C264.816 398.821 262.244 394.031 260.661 393.02C259.078 392.009 253.493 393.46 253.009 394.822Z" fill="white"/>
<path d="M81.1995 398.272C81.0236 399.811 89.9944 396.075 91.6654 393.218C93.3365 390.362 93.8642 386.956 93.2925 386.758C92.7208 386.56 81.4853 395.833 81.1995 398.272Z" fill="white"/>
<path d="M194.742 325.692C194.215 327.186 200.547 334.02 202.13 333.01C203.713 331.999 202.416 327.121 199.25 325.692C196.084 324.264 195.028 324.879 194.742 325.692Z" fill="white"/>
<path d="M237.464 306.817C235.617 307.278 235.881 310.069 234.298 312.574C232.715 315.079 229.768 316.969 230.098 317.518C230.428 318.067 237.882 317.979 239.179 314.156C240.476 310.333 238.585 306.575 237.464 306.817Z" fill="white"/>
<path d="M235.595 303.982C234.282 302.59 233.543 300.753 233.528 298.84C233.968 297.61 236.057 299.038 236.453 300.268C236.848 301.499 236.54 304.18 235.595 303.982Z" fill="white"/>
<path d="M83.5522 325.121C83.7281 327.824 93.7543 328.373 94.7657 326.945C95.7772 325.516 93.9082 324.264 90.5881 323.693C87.268 323.121 83.3983 324.462 83.5522 325.121Z" fill="white"/>
<path style="mix-blend-mode:multiply" opacity="0.3" d="M218.049 356.104C210.441 360.323 200.173 366.849 200.173 366.849H196.391C196.391 366.849 180.758 359.664 179.879 350.215C179.307 343.623 183.287 333.998 188.19 328.241C189.355 331.296 195.996 347.842 202.79 352.764C204.77 354.135 207.018 355.071 209.386 355.511C211.729 355.991 214.118 356.212 216.51 356.17L218.049 356.104Z" fill="url(#paint47_linear_4604_719)"/>
<path style="mix-blend-mode:multiply" opacity="0.3" d="M134.717 313.277C134.717 313.277 135.706 316.375 145.315 316.661C154.923 316.947 162.905 310.267 162.905 310.267L144.413 308.443L134.717 313.277Z" fill="url(#paint48_linear_4604_719)"/>
<path d="M113.983 288.842C113.851 290.204 127.373 286.776 125.944 282.426C125.042 279.657 114.334 286.403 113.983 288.842Z" fill="white"/>
<path d="M134.717 313.277L133.859 304.07C136.698 303.512 139.585 303.233 142.478 303.235C145.051 303.521 150.218 314.024 150.218 314.024C150.218 314.024 141.621 318.287 134.717 313.277Z" fill="url(#paint49_linear_4604_719)"/>
</g>
<defs>
<radialGradient id="paint0_radial_4604_719" cx="0" cy="0" r="1" gradientUnits="userSpaceOnUse" gradientTransform="translate(174.074 452.811) scale(89.6866 19.719)">
<stop stop-color="#BE9DEA"/>
<stop offset="0.39" stop-color="#E0BFF5"/>
<stop offset="1" stop-color="white"/>
</radialGradient>
<linearGradient id="paint1_linear_4604_719" x1="112.619" y1="418.708" x2="119.515" y2="363.75" gradientUnits="userSpaceOnUse">
<stop stop-color="#DAD3F9"/>
<stop offset="1" stop-color="#BE9DEA"/>
</linearGradient>
<linearGradient id="paint2_linear_4604_719" x1="144.677" y1="411.369" x2="144.677" y2="365.18" gradientUnits="userSpaceOnUse">
<stop stop-color="#BE9DEA"/>
<stop offset="1" stop-color="#9E8CEF"/>
</linearGradient>
<linearGradient id="paint3_linear_4604_719" x1="114.137" y1="415.258" x2="114.137" y2="367.113" gradientUnits="userSpaceOnUse">
<stop stop-color="#9D68C2"/>
<stop offset="1" stop-color="#CCEDFF"/>
</linearGradient>
<linearGradient id="paint4_linear_4604_719" x1="114.137" y1="351.358" x2="125.359" y2="261.9" gradientUnits="userSpaceOnUse">
<stop stop-color="#DAD3F9"/>
<stop offset="1" stop-color="#BE9DEA"/>
</linearGradient>
<linearGradient id="paint5_linear_4604_719" x1="176.163" y1="412.951" x2="195.115" y2="261.987" gradientUnits="userSpaceOnUse">
<stop stop-color="#CBC1F7"/>
<stop offset="1" stop-color="#E8DCF7"/>
</linearGradient>
<linearGradient id="paint6_linear_4604_719" x1="217.499" y1="325.89" x2="223.824" y2="275.393" gradientUnits="userSpaceOnUse">
<stop stop-color="#BE9DEA"/>
<stop offset="1" stop-color="#9E8CEF"/>
</linearGradient>
<radialGradient id="paint7_radial_4604_719" cx="0" cy="0" r="1" gradientUnits="userSpaceOnUse" gradientTransform="translate(179.857 397.521) scale(65.1267 67.0394)">
<stop stop-color="#45FFCD"/>
<stop offset="1" stop-color="#22E0FF"/>
</radialGradient>
<linearGradient id="paint8_linear_4604_719" x1="242.059" y1="417.609" x2="249.877" y2="355.334" gradientUnits="userSpaceOnUse">
<stop stop-color="#CBC1F7"/>
<stop offset="1" stop-color="#E8DCF7"/>
</linearGradient>
<linearGradient id="paint9_linear_4604_719" x1="234.716" y1="400.931" x2="234.716" y2="353.489" gradientUnits="userSpaceOnUse">
<stop stop-color="#8DA4E5"/>
<stop offset="1" stop-color="#755CBB"/>
</linearGradient>
<linearGradient id="paint10_linear_4604_719" x1="237.288" y1="351.446" x2="247.192" y2="272.514" gradientUnits="userSpaceOnUse">
<stop stop-color="#CBC1F7"/>
<stop offset="1" stop-color="#E8DCF7"/>
</linearGradient>
<linearGradient id="paint11_linear_4604_719" x1="194.61" y1="332.636" x2="197.004" y2="313.43" gradientUnits="userSpaceOnUse">
<stop stop-color="#DAD3F9"/>
<stop offset="1" stop-color="#BE9DEA"/>
</linearGradient>
<linearGradient id="paint12_linear_4604_719" x1="96.1729" y1="331.515" x2="99.0717" y2="308.574" gradientUnits="userSpaceOnUse">
<stop stop-color="#CBC1F7"/>
<stop offset="1" stop-color="#E8DCF7"/>
</linearGradient>
<linearGradient id="paint13_linear_4604_719" x1="104.066" y1="319.298" x2="104.066" y2="308.64" gradientUnits="userSpaceOnUse">
<stop stop-color="#BE9DEA"/>
<stop offset="1" stop-color="#9E8CEF"/>
</linearGradient>
<linearGradient id="paint14_linear_4604_719" x1="142.061" y1="384.692" x2="159.828" y2="309.119" gradientUnits="userSpaceOnUse">
<stop stop-color="#DD1A8F"/>
<stop offset="1" stop-color="#FE117E"/>
</linearGradient>
<linearGradient id="paint15_linear_4604_719" x1="147.096" y1="380.913" x2="147.096" y2="337.009" gradientUnits="userSpaceOnUse">
<stop stop-color="#8DA4E5"/>
<stop offset="1" stop-color="#755CBB"/>
</linearGradient>
<linearGradient id="paint16_linear_4604_719" x1="98.7234" y1="365.201" x2="98.7234" y2="322.77" gradientUnits="userSpaceOnUse">
<stop stop-color="#BE9DEA"/>
<stop offset="1" stop-color="#9E8CEF"/>
</linearGradient>
<linearGradient id="paint17_linear_4604_719" x1="219.808" y1="349.732" x2="219.808" y2="325.692" gradientUnits="userSpaceOnUse">
<stop stop-color="#BE9DEA"/>
<stop offset="1" stop-color="#9E8CEF"/>
</linearGradient>
<linearGradient id="paint18_linear_4604_719" x1="89.5766" y1="365.86" x2="94.8033" y2="324.109" gradientUnits="userSpaceOnUse">
<stop stop-color="#CBC1F7"/>
<stop offset="1" stop-color="#E8DCF7"/>
</linearGradient>
<linearGradient id="paint19_linear_4604_719" x1="145.622" y1="324.791" x2="147.665" y2="308.508" gradientUnits="userSpaceOnUse">
<stop stop-color="#D93DE3"/>
<stop offset="1" stop-color="#FF6DBA"/>
</linearGradient>
<linearGradient id="paint20_linear_4604_719" x1="68.6007" y1="406.051" x2="76.77" y2="290.863" gradientUnits="userSpaceOnUse">
<stop stop-color="#A242EA"/>
<stop offset="1" stop-color="#FE117E"/>
</linearGradient>
<linearGradient id="paint21_linear_4604_719" x1="174.822" y1="293.984" x2="174.822" y2="270.845" gradientUnits="userSpaceOnUse">
<stop stop-color="#8DA4E5"/>
<stop offset="1" stop-color="#755CBB"/>
</linearGradient>
<linearGradient id="paint22_linear_4604_719" x1="260.903" y1="175.808" x2="260.903" y2="99.6245" gradientUnits="userSpaceOnUse">
<stop stop-color="#B9ACF4"/>
<stop offset="1" stop-color="#E1D1F5"/>
</linearGradient>
<linearGradient id="paint23_linear_4604_719" x1="266.421" y1="141.023" x2="266.421" y2="99.6023" gradientUnits="userSpaceOnUse">
<stop stop-color="#BE9DEA"/>
<stop offset="1" stop-color="#9E8CEF"/>
</linearGradient>
<linearGradient id="paint24_linear_4604_719" x1="276.733" y1="179.456" x2="276.733" y2="104.59" gradientUnits="userSpaceOnUse">
<stop stop-color="#45FFCD"/>
<stop offset="1" stop-color="#22E0FF"/>
</linearGradient>
<linearGradient id="paint25_linear_4604_719" x1="102.066" y1="178.774" x2="102.066" y2="102.591" gradientUnits="userSpaceOnUse">
<stop stop-color="#B9ACF4"/>
<stop offset="1" stop-color="#E1D1F5"/>
</linearGradient>
<linearGradient id="paint26_linear_4604_719" x1="96.5247" y1="144.012" x2="96.5247" y2="102.591" gradientUnits="userSpaceOnUse">
<stop stop-color="#BE9DEA"/>
<stop offset="1" stop-color="#9E8CEF"/>
</linearGradient>
<linearGradient id="paint27_linear_4604_719" x1="86.2786" y1="184.114" x2="86.2786" y2="107.557" gradientUnits="userSpaceOnUse">
<stop stop-color="#45FFCD"/>
<stop offset="1" stop-color="#22E0FF"/>
</linearGradient>
<linearGradient id="paint28_linear_4604_719" x1="174.646" y1="276.427" x2="197.881" y2="91.3807" gradientUnits="userSpaceOnUse">
<stop stop-color="#CBC1F7"/>
<stop offset="1" stop-color="#E8DCF7"/>
</linearGradient>
<linearGradient id="paint29_linear_4604_719" x1="182.144" y1="258.694" x2="182.144" y2="105.733" gradientUnits="userSpaceOnUse">
<stop stop-color="#0665BD"/>
<stop offset="1" stop-color="#1A1F77"/>
</linearGradient>
<linearGradient id="paint30_linear_4604_719" x1="118.028" y1="139.946" x2="253.053" y2="139.946" gradientUnits="userSpaceOnUse">
<stop/>
<stop offset="1" stop-color="#6A9BFF"/>
</linearGradient>
<linearGradient id="paint31_linear_4604_719" x1="135.772" y1="247.861" x2="233.946" y2="247.861" gradientUnits="userSpaceOnUse">
<stop/>
<stop offset="1" stop-color="#6A9BFF"/>
</linearGradient>
<linearGradient id="paint32_linear_4604_719" x1="103.477" y1="229.113" x2="106.896" y2="179.195" gradientUnits="userSpaceOnUse">
<stop/>
<stop offset="1" stop-color="#00E3FF"/>
</linearGradient>
<linearGradient id="paint33_linear_4604_719" x1="108.112" y1="259.88" x2="108.112" y2="236.412" gradientUnits="userSpaceOnUse">
<stop stop-color="#8DA4E5"/>
<stop offset="1" stop-color="#755CBB"/>
</linearGradient>
<linearGradient id="paint34_linear_4604_719" x1="64.9288" y1="246.916" x2="76.041" y2="158.513" gradientUnits="userSpaceOnUse">
<stop stop-color="#BE9DEA"/>
<stop offset="1" stop-color="#9E8CEF"/>
</linearGradient>
<linearGradient id="paint35_linear_4604_719" x1="107.936" y1="247.836" x2="113.664" y2="223.663" gradientUnits="userSpaceOnUse">
<stop stop-color="#DD1A8F"/>
<stop offset="1" stop-color="#FE117E"/>
</linearGradient>
<linearGradient id="paint36_linear_4604_719" x1="109.629" y1="235.379" x2="109.629" y2="224.788" gradientUnits="userSpaceOnUse">
<stop stop-color="#D93DE3"/>
<stop offset="1" stop-color="#FF6DBA"/>
</linearGradient>
<linearGradient id="paint37_linear_4604_719" x1="265.564" y1="123.29" x2="285.045" y2="123.29" gradientUnits="userSpaceOnUse">
<stop/>
<stop offset="1" stop-color="#D4E2FF"/>
</linearGradient>
<linearGradient id="paint38_linear_4604_719" x1="76.868" y1="121.928" x2="98.3497" y2="121.928" gradientUnits="userSpaceOnUse">
<stop stop-color="#D4E2FF"/>
<stop offset="1"/>
</linearGradient>
<linearGradient id="paint39_linear_4604_719" x1="57.0133" y1="196.375" x2="57.0133" y2="171.633" gradientUnits="userSpaceOnUse">
<stop stop-color="#CBC1F7"/>
<stop offset="1" stop-color="#E8DCF7"/>
</linearGradient>
<radialGradient id="paint40_radial_4604_719" cx="0" cy="0" r="1" gradientUnits="userSpaceOnUse" gradientTransform="translate(228.427 192.684) scale(32.5414 32.5214)">
<stop stop-color="#45FFCD"/>
<stop offset="1" stop-color="#22E0FF"/>
</radialGradient>
<radialGradient id="paint41_radial_4604_719" cx="0" cy="0" r="1" gradientUnits="userSpaceOnUse" gradientTransform="translate(135.288 192.706) rotate(180) scale(32.5633 32.5434)">
<stop stop-color="#45FFCD"/>
<stop offset="1" stop-color="#22E0FF"/>
</radialGradient>
<linearGradient id="paint42_linear_4604_719" x1="240.036" y1="349.797" x2="240.036" y2="290.841" gradientUnits="userSpaceOnUse">
<stop stop-color="#9D68C2"/>
<stop offset="1" stop-color="#CCEDFF"/>
</linearGradient>
<linearGradient id="paint43_linear_4604_719" x1="200.635" y1="367.377" x2="206.125" y2="323.692" gradientUnits="userSpaceOnUse">
<stop stop-color="#CBC1F7"/>
<stop offset="1" stop-color="#E8DCF7"/>
</linearGradient>
<linearGradient id="paint44_linear_4604_719" x1="210.507" y1="366.849" x2="210.507" y2="352.742" gradientUnits="userSpaceOnUse">
<stop stop-color="#BE9DEA"/>
<stop offset="1" stop-color="#9E8CEF"/>
</linearGradient>
<linearGradient id="paint45_linear_4604_719" x1="177.592" y1="410.753" x2="177.592" y2="398.272" gradientUnits="userSpaceOnUse">
<stop stop-color="#D4E2FF"/>
<stop offset="1"/>
</linearGradient>
<linearGradient id="paint46_linear_4604_719" x1="256.439" y1="417.829" x2="256.439" y2="399.415" gradientUnits="userSpaceOnUse">
<stop stop-color="#9D68C2"/>
<stop offset="1" stop-color="#CCEDFF"/>
</linearGradient>
<linearGradient id="paint47_linear_4604_719" x1="198.942" y1="366.849" x2="198.942" y2="328.219" gradientUnits="userSpaceOnUse">
<stop stop-color="#9D68C2"/>
<stop offset="1" stop-color="#CCEDFF"/>
</linearGradient>
<linearGradient id="paint48_linear_4604_719" x1="148.833" y1="316.661" x2="148.833" y2="308.443" gradientUnits="userSpaceOnUse">
<stop stop-color="#8DA4E5"/>
<stop offset="1" stop-color="#755CBB"/>
</linearGradient>
<linearGradient id="paint49_linear_4604_719" x1="141.577" y1="315.694" x2="142.455" y2="303.235" gradientUnits="userSpaceOnUse">
<stop stop-color="#A242EA"/>
<stop offset="1" stop-color="#FE117E"/>
</linearGradient>
<clipPath id="clip0_4604_719">
<rect width="335" height="472" fill="white"/>
</clipPath>
</defs>
</svg>
