<svg width="104" height="106" viewBox="0 0 104 106" fill="none" xmlns="http://www.w3.org/2000/svg">
<path opacity="0.3" d="M0.001235 43.767C0.21139 23.5805 58.0041 -1.68263 84.0634 5.13632C110.123 11.9553 114.266 102.164 74.4263 105.138C34.5868 108.111 -0.238943 68.9401 0.001235 43.767Z" fill="#10C400"/>
<g clip-path="url(#clip0_4634_115)">
<path d="M84.9244 5.95166C83.4559 5.95166 82.0397 7.27649 81.0379 9.58782C79.0826 14.0719 76.8618 23.9735 75.6468 29.8068C76.6888 34.6455 75.6468 46.0758 73.9449 49.0964C73.4945 49.972 72.818 50.7074 71.9877 51.2242C71.1573 51.7411 70.2041 52.02 69.2296 52.0314C68.4355 52.0387 67.6516 51.8499 66.9457 51.4813C66.2397 51.1126 65.6331 50.5753 65.1782 49.9157C64.6632 49.1616 64.1362 47.2171 63.7017 44.7428C63.3476 46.5323 62.897 48.0039 62.4424 48.8477C61.3118 50.8451 59.4732 51.9906 57.3892 51.9906C56.5396 51.9994 55.7007 51.7984 54.945 51.4049C54.1893 51.0114 53.5396 50.4373 53.0521 49.7323C51.5434 47.5025 49.8938 35.7584 50.5778 28.6613C49.7409 25.4532 49.061 21.7314 48.3972 18.0953C47.6609 14.0556 46.8965 9.87317 45.947 6.59981C44.7159 2.35219 42.4588 0.839844 40.7489 0.839844C40.2935 0.8457 39.8442 0.946435 39.429 1.13578C39.0137 1.32513 38.6413 1.59904 38.335 1.94047C37.2205 3.1104 36.6452 5.00186 36.7256 7.26426C36.8061 9.6082 37.3412 14.5407 37.9648 20.2558C40.4029 42.6475 41.1472 53.4011 38.7695 53.9555C35.9934 54.6077 31.5276 51.5952 25.4404 44.9874C24.346 43.797 22.5517 43.0877 20.6406 43.0877C18.5968 43.0877 16.8909 43.8663 16.1788 45.1259C15.5834 46.1777 15.7282 47.531 16.5811 49.0434L17.1082 49.9606C29.524 71.643 39.4615 83.2363 46.647 84.4103C49.6616 84.9027 52.7103 85.1494 55.7638 85.1481C69.6119 85.1481 84.8198 79.8488 85.4957 68.2188C86.0348 58.9327 86.9481 37.8862 87.5476 23.9572C87.8292 17.4675 88.0505 12.3435 88.135 10.7211C88.1979 10.033 88.1235 9.3391 87.9161 8.68078C87.7087 8.02246 87.3727 7.41318 86.928 6.88923C86.6735 6.60433 86.3649 6.37442 86.0206 6.21331C85.6763 6.0522 85.3035 5.96321 84.9244 5.95166ZM53.3216 75.8213C53.3098 75.9207 53.2622 76.0123 53.188 76.0784C53.1138 76.1446 53.0182 76.1808 52.9193 76.18H52.859C52.8044 76.1737 52.7516 76.156 52.704 76.1282C52.6564 76.1004 52.6149 76.063 52.5821 76.0183C52.5493 75.9736 52.5259 75.9226 52.5133 75.8684C52.5007 75.8142 52.4992 75.7579 52.5089 75.7031C52.9488 72.4881 52.5056 69.2124 51.228 66.2359C49.9505 63.2594 47.8879 60.6972 45.267 58.8308C45.2221 58.7998 45.1837 58.7601 45.1539 58.714C45.1242 58.6679 45.1037 58.6163 45.0936 58.5622C45.0835 58.508 45.084 58.4524 45.0952 58.3985C45.1063 58.3446 45.1278 58.2934 45.1584 58.2479C45.1891 58.2024 45.2283 58.1635 45.2737 58.1333C45.3192 58.1032 45.3702 58.0824 45.4236 58.0721C45.477 58.0619 45.5319 58.0625 45.5851 58.0737C45.6383 58.085 45.6888 58.1068 45.7337 58.1378C48.4793 60.0951 50.6399 62.7807 51.9784 65.9C53.3169 69.0194 53.7816 72.452 53.3216 75.8213ZM74.4559 55.5126C70.6096 56.7356 66.4697 57.9177 62.2654 58.2275C61.5613 58.2764 60.8693 58.305 60.1853 58.305C56.3632 58.305 52.871 57.4897 49.9904 55.9325C49.9426 55.9057 49.9004 55.8697 49.8663 55.8264C49.8323 55.7832 49.807 55.7335 49.7918 55.6803C49.7767 55.6272 49.772 55.5715 49.7782 55.5165C49.7843 55.4615 49.801 55.4082 49.8274 55.3598C49.8538 55.3113 49.8894 55.2686 49.9321 55.2341C49.9748 55.1996 50.0238 55.1739 50.0763 55.1586C50.1288 55.1433 50.1838 55.1386 50.238 55.1448C50.2923 55.1509 50.3449 55.1679 50.3927 55.1947C53.6435 56.9598 57.7311 57.718 62.2131 57.3878C66.3329 57.0861 70.4165 55.9244 74.2145 54.7137C74.3212 54.6801 74.4366 54.691 74.5355 54.7437C74.6343 54.7964 74.7084 54.8868 74.7415 54.9949C74.7746 55.1031 74.7639 55.22 74.7119 55.3202C74.6598 55.4203 74.5706 55.4954 74.4639 55.5289L74.4559 55.5126Z" fill="#FFDCAD"/>
<path d="M84.9244 5.11182C83.8583 5.11182 81.8426 5.6499 80.2816 9.24937C78.4188 13.5337 76.375 22.3428 75.1197 28.2699C75.0875 28.2169 75.0594 28.1598 75.0312 28.115C73.7438 26.2154 70.2717 24.6093 67.4473 24.6093C66.1076 24.6093 65.0334 24.9721 64.3213 25.6569C64.0801 25.9072 63.8841 26.1983 63.7419 26.517C63.7018 26.4372 63.6575 26.3597 63.6091 26.2847C62.2292 24.2465 58.4996 22.5222 55.4701 22.5222C54.0378 22.5222 52.8791 22.9298 52.1267 23.6432C51.5715 24.1813 51.1692 25.18 50.8956 26.4967C50.28 23.794 49.7409 20.8468 49.1978 17.9362C48.4575 13.8598 47.6931 9.67332 46.7275 6.35512C45.5768 2.37655 43.348 0 40.7489 0C40.1828 0.00841291 39.6242 0.133043 39.107 0.366357C38.5897 0.599672 38.1245 0.936826 37.7395 1.35744C36.4762 2.69043 35.8164 4.79793 35.921 7.2927C35.9974 9.66516 36.5366 14.6302 37.1602 20.3372C37.9326 27.4098 38.8057 35.4199 39.2 41.9422C39.8356 52.3329 38.8258 53.1034 38.6166 53.1523C38.4169 53.1954 38.2133 53.2173 38.0091 53.2175C36.2509 53.2175 32.7547 51.697 26.0761 44.4451C25.3677 43.7314 24.5233 43.1714 23.5943 42.7992C22.6654 42.4271 21.6713 42.2506 20.6728 42.2805C18.3353 42.2805 16.3518 43.2181 15.4949 44.7264C14.9678 45.6517 14.6178 47.2293 15.8972 49.4876L16.4242 50.4007C21.0993 58.5535 35.3336 83.4196 46.5465 85.2622C49.6065 85.7598 52.7008 86.0092 55.8 86.0081C70.0222 86.0081 85.6526 80.4602 86.3768 68.288C86.9159 58.9938 87.8252 37.9432 88.4287 24.0141C88.7103 17.5286 88.9316 12.4045 89.0161 10.7862C89.0811 9.98279 88.9861 9.17436 88.7366 8.40895C88.487 7.64353 88.0882 6.93676 87.5637 6.33066C87.2304 5.95416 86.824 5.65154 86.3698 5.44179C85.9156 5.23204 85.4235 5.1197 84.9244 5.11182ZM88.143 10.7332C88.0586 12.3637 87.8373 17.4796 87.5556 23.9693C86.9562 37.8984 86.0429 58.9449 85.5038 68.2309C84.8279 79.8609 69.6199 85.1603 55.7718 85.1603C52.7183 85.1616 49.6697 84.9148 46.6551 84.4224C39.4695 83.2484 29.532 71.6551 17.1162 49.9727L16.6093 49.0555C15.7403 47.5432 15.5954 46.202 16.207 45.1381C16.9191 43.8866 18.6209 43.0999 20.6688 43.0999C22.5798 43.0999 24.3742 43.8092 25.4685 44.9995C31.5356 51.587 36.0216 54.5994 38.7976 53.9676C41.1633 53.4132 40.4069 42.6596 37.993 20.2679C37.3694 14.5609 36.8343 9.62033 36.7538 7.27639C36.6814 5.01398 37.2567 3.12253 38.3631 1.9526C38.6694 1.61117 39.0418 1.33726 39.4571 1.14791C39.8724 0.958561 40.3217 0.857825 40.7771 0.851969C42.4789 0.851969 44.736 2.36432 45.9671 6.60786C46.9166 9.86899 47.681 14.0636 48.4173 18.1033C49.0811 21.7517 49.761 25.4409 50.5979 28.6694C49.9139 35.7664 51.5635 47.5105 53.0722 49.7403C53.5593 50.4461 54.2088 51.021 54.9645 51.4152C55.7202 51.8094 56.5593 52.0111 57.4093 52.0027C59.4933 52.0027 61.332 50.8573 62.4625 48.8598C62.9373 48.0119 63.3677 46.5444 63.7218 44.7549C64.1563 47.2293 64.6834 49.1737 65.1983 49.9279C65.6532 50.5874 66.2599 51.1248 66.9658 51.4934C67.6717 51.862 68.4556 52.0508 69.2498 52.0435C70.2242 52.0322 71.1774 51.7532 72.0078 51.2364C72.8382 50.7195 73.5146 49.9841 73.965 49.1085C75.6709 46.0879 76.7089 34.6576 75.6669 29.8189C76.8739 23.9856 79.1028 14.1003 81.0581 9.59994C82.0599 7.28862 83.472 5.96379 84.9445 5.96379C85.3259 5.9758 85.7008 6.06618 86.0466 6.22945C86.3924 6.39272 86.7018 6.62548 86.9562 6.91359C87.3993 7.43605 87.7345 8.04332 87.9418 8.69941C88.1492 9.35551 88.2244 10.0471 88.1632 10.7332H88.143ZM55.45 23.3701C58.1978 23.3701 61.682 24.9599 62.9051 26.7698C64.7035 29.4235 63.8586 44.6122 61.6981 48.4359C60.7204 50.1684 59.1433 51.1589 57.365 51.1589C56.6495 51.1673 55.9428 50.9987 55.3062 50.6677C54.6696 50.3366 54.1223 49.8532 53.7119 49.2593C52.0141 46.7319 49.6886 27.1652 52.698 24.2465C53.2935 23.6676 54.255 23.3619 55.4701 23.3619L55.45 23.3701ZM67.4272 25.4572C69.9699 25.4572 73.1926 26.9247 74.3271 28.6001C75.9928 31.0459 75.2082 45.1422 73.2087 48.6886C72.8277 49.4338 72.2548 50.0606 71.5507 50.5027C70.8467 50.9448 70.0377 51.1856 69.2095 51.1997C68.5502 51.2075 67.8989 51.0524 67.3121 50.7476C66.7254 50.4429 66.2208 49.9978 65.8421 49.4509C65.2587 48.5908 64.5948 45.5906 64.1322 42.0074C64.8161 36.9526 64.9368 30.7239 64.1322 27.6544C64.2705 27.1362 64.5299 26.6594 64.8885 26.2643C65.4438 25.7303 66.3248 25.449 67.4473 25.449L67.4272 25.4572Z" fill="#D79054"/>
<path d="M64.1523 41.9872C64.615 45.5704 65.2788 48.5706 65.8622 49.4308C66.2409 49.9777 66.7455 50.4228 67.3323 50.7275C67.9191 51.0322 68.5703 51.1874 69.2296 51.1795C70.0578 51.1655 70.8668 50.9246 71.5708 50.4826C72.2749 50.0405 72.8478 49.4136 73.2288 48.6685C75.2404 45.122 76.0129 31.038 74.3472 28.5799C73.2127 26.9045 69.99 25.437 67.4473 25.437C66.3248 25.437 65.4357 25.7183 64.8926 26.2523C64.5438 26.6476 64.2928 27.1212 64.1603 27.6342C64.973 30.716 64.8362 36.9447 64.1523 41.9872Z" fill="#FFDCAD"/>
<path d="M53.736 49.2511C54.1465 49.845 54.6937 50.3284 55.3303 50.6594C55.9669 50.9905 56.6737 51.1591 57.3892 51.1507C59.1674 51.1507 60.7446 50.1601 61.7222 48.4277C63.8787 44.604 64.7236 29.4153 62.9292 26.7615C61.7222 24.9516 58.222 23.3618 55.4741 23.3618C54.2671 23.3618 53.2975 23.6675 52.7021 24.2464C49.6886 27.1651 52.0141 46.7319 53.736 49.2511Z" fill="#FFDCAD"/>
<path d="M45.7177 58.1135C45.6728 58.0825 45.6223 58.0607 45.569 58.0494C45.5158 58.0381 45.4609 58.0376 45.4075 58.0478C45.3541 58.058 45.3032 58.0788 45.2577 58.109C45.2122 58.1391 45.173 58.1781 45.1423 58.2236C45.1117 58.2691 45.0902 58.3202 45.0791 58.3742C45.0679 58.4281 45.0674 58.4837 45.0775 58.5378C45.0876 58.592 45.1081 58.6435 45.1379 58.6896C45.1676 58.7357 45.2061 58.7754 45.251 58.8065C47.8719 60.6729 49.9344 63.235 51.2119 66.2115C52.4895 69.188 52.9327 72.4637 52.4929 75.6788C52.4832 75.7336 52.4846 75.7898 52.4972 75.844C52.5098 75.8982 52.5332 75.9493 52.566 75.994C52.5988 76.0387 52.6403 76.0761 52.6879 76.1039C52.7355 76.1317 52.7883 76.1493 52.8429 76.1557H52.9032C53.0021 76.1564 53.0977 76.1202 53.1719 76.0541C53.2461 75.9879 53.2937 75.8964 53.3056 75.797C53.7655 72.4276 53.3008 68.995 51.9623 65.8757C50.6238 62.7563 48.4633 60.0708 45.7177 58.1135Z" fill="#D79054"/>
<path d="M74.2064 54.6933C70.4085 55.9162 66.3249 57.0658 62.205 57.3674C57.7231 57.6976 53.6355 56.9598 50.3847 55.1743C50.2881 55.1203 50.1743 55.1073 50.0683 55.1383C49.9623 55.1692 49.8727 55.2416 49.8194 55.3394C49.766 55.4373 49.7532 55.5526 49.7838 55.66C49.8144 55.7674 49.8858 55.8581 49.9823 55.9122C52.871 57.4775 56.3632 58.2928 60.1853 58.2928C60.8693 58.2928 61.5613 58.2642 62.2654 58.2153C66.4697 57.9055 70.6096 56.7274 74.4559 55.5004C74.5626 55.4669 74.6518 55.3918 74.7038 55.2917C74.7559 55.1915 74.7666 55.0745 74.7335 54.9664C74.7004 54.8583 74.6263 54.7679 74.5275 54.7152C74.4286 54.6624 74.3132 54.6516 74.2064 54.6852V54.6933Z" fill="#D79054"/>
<path d="M55.4701 23.3618C54.2631 23.3618 53.2935 23.6675 52.698 24.2464C49.6886 27.1651 52.0261 46.7319 53.736 49.2511C54.1465 49.845 54.6937 50.3284 55.3303 50.6594C55.9669 50.9905 56.6737 51.1591 57.3892 51.1507C57.9118 51.1492 58.4303 51.0568 58.922 50.8776C58.8577 50.8164 58.7973 50.7553 58.737 50.6901C55.5183 47.2536 54.7419 42.1744 54.7137 37.4377C54.6766 32.714 55.2171 28.0038 56.323 23.4148C56.0399 23.381 55.7551 23.3634 55.4701 23.3618Z" fill="#FCCA92"/>
<path d="M69.1854 25.649C68.6143 25.5222 68.0319 25.4553 67.4474 25.4492C66.3249 25.4492 65.4357 25.7305 64.8926 26.2645C64.5438 26.6598 64.2928 27.1334 64.1603 27.6464C64.965 30.7159 64.8362 36.9447 64.1603 41.9994C64.623 45.5826 65.2869 48.5828 65.8702 49.443C66.2489 49.9899 66.7535 50.435 67.3403 50.7397C67.9271 51.0444 68.5784 51.1996 69.2377 51.1917C70.0364 51.1943 70.8198 50.9697 71.4988 50.5436C70.6941 48.9905 69.5797 47.5026 68.8957 45.8924C68.4016 44.6093 68.0481 43.2751 67.8416 41.9138C67.3106 39.0196 66.868 36.0846 67.037 33.1496C67.1174 30.5058 67.8564 27.9256 69.1854 25.649Z" fill="#FCCA92"/>
<path d="M58.7893 82.156C57.9243 81.463 56.9225 80.9576 56.0977 80.2197C55.2729 79.4819 54.6252 78.4017 54.7982 77.297C54.9189 76.5061 55.4419 75.8457 55.7598 75.112C56.673 73.0167 55.8644 70.628 55.2166 68.4226C54.5689 66.2173 54.1665 63.5921 55.635 61.8637C57.2926 59.9314 60.2698 60.2331 62.7884 60.494C66.3369 60.8486 70.0303 60.7264 73.3173 59.3526C74.3768 58.9763 75.3165 58.3172 76.037 57.4448C76.7049 56.5358 76.9463 55.2354 76.383 54.2612C76.037 53.666 75.4537 53.2665 74.9628 52.7896C74.1943 52.0224 73.6201 51.0784 73.2891 50.038C72.8005 50.6583 72.1806 51.1594 71.4752 51.5044C70.7697 51.8495 69.9969 52.0295 69.2136 52.0314C68.4194 52.0387 67.6355 51.8499 66.9296 51.4813C66.2237 51.1126 65.617 50.5753 65.1621 49.9157C64.6472 49.1616 64.1201 47.2171 63.6856 44.7428C63.3316 46.5323 62.8809 48.0039 62.4263 48.8477C61.2958 50.8451 59.4571 51.9906 57.3731 51.9906C56.5262 51.9968 55.6905 51.7945 54.9379 51.4011C54.1852 51.0077 53.5381 50.435 53.0521 49.7323C52.6498 49.1086 52.1992 47.7471 51.8089 45.9494C51.3543 48.1792 51.0042 50.4742 49.8254 52.386C48.6466 54.2979 46.5585 56.2912 47.4356 58.3661C46.301 58.7208 45.3435 57.0576 44.1727 57.2451C43.002 57.4326 42.9054 59.1895 43.3962 60.3065C44.1486 62.0186 45.4401 63.429 46.3493 65.0637C47.2586 66.6983 47.7374 68.8058 46.7758 70.4078C45.6453 72.2993 43.0502 72.6498 40.9018 72.2585C34.364 71.0641 29.6729 65.2675 26.3134 59.4627C23.3542 54.3413 20.9491 48.9114 19.1399 43.2671C17.7922 43.5524 16.726 44.2169 16.1909 45.1422C15.5954 46.194 15.7403 47.5473 16.5932 49.0597L17.1203 49.9769C29.5361 71.6593 39.4736 83.2526 46.6591 84.4266C49.6737 84.919 52.7224 85.1657 55.7758 85.1644C57.6679 85.1627 59.5586 85.0633 61.4406 84.8668C60.5716 83.9741 59.779 82.9428 58.7893 82.156ZM49.8214 55.3455C49.8459 55.2954 49.8803 55.251 49.9224 55.2149C49.9645 55.1789 50.0135 55.152 50.0663 55.1359C50.1192 55.1199 50.1747 55.115 50.2294 55.1216C50.2842 55.1282 50.337 55.1461 50.3847 55.1743C53.6355 56.9394 57.7231 57.6976 62.205 57.3674C66.3249 57.0657 70.4085 55.904 74.2064 54.6933C74.3131 54.6597 74.4286 54.6706 74.5275 54.7233C74.6263 54.776 74.7004 54.8664 74.7335 54.9745C74.7666 55.0827 74.7559 55.1996 74.7038 55.2998C74.6518 55.3999 74.5626 55.475 74.4559 55.5085C70.6096 56.7315 66.4697 57.9136 62.2654 58.2234C61.5613 58.2724 60.8693 58.3009 60.1853 58.3009C56.3632 58.3009 52.871 57.4856 49.9904 55.9284C49.9393 55.9038 49.8939 55.8685 49.8572 55.8249C49.8205 55.7812 49.7932 55.7302 49.7773 55.6752C49.7613 55.6202 49.757 55.5624 49.7646 55.5056C49.7722 55.4488 49.7916 55.3942 49.8214 55.3455ZM53.3217 75.8213C53.3098 75.9207 53.2622 76.0122 53.188 76.0784C53.1138 76.1446 53.0182 76.1807 52.9193 76.18H52.859C52.8044 76.1737 52.7516 76.156 52.704 76.1282C52.6564 76.1004 52.6149 76.063 52.5821 76.0183C52.5493 75.9736 52.5259 75.9226 52.5133 75.8684C52.5007 75.8141 52.4992 75.7579 52.509 75.7031C52.9488 72.488 52.5056 69.2124 51.228 66.2359C49.9505 63.2594 47.888 60.6972 45.2671 58.8308C45.2222 58.7998 45.1837 58.7601 45.154 58.714C45.1242 58.6679 45.1037 58.6163 45.0936 58.5622C45.0835 58.508 45.084 58.4524 45.0952 58.3985C45.1063 58.3446 45.1278 58.2934 45.1584 58.2479C45.1891 58.2024 45.2283 58.1635 45.2738 58.1333C45.3193 58.1031 45.3702 58.0824 45.4236 58.0721C45.477 58.0619 45.5319 58.0625 45.5851 58.0737C45.6383 58.085 45.6889 58.1068 45.7338 58.1378C48.4794 60.0951 50.6399 62.7807 51.9784 65.9C53.3169 69.0194 53.7816 72.452 53.3217 75.8213Z" fill="#FCCA92"/>
<path d="M85.2624 5.98019C85.1505 5.96267 85.0376 5.95313 84.9244 5.95166C83.4559 5.95166 82.0397 7.27649 81.0379 9.58782C79.0826 14.0719 76.8618 23.9735 75.6468 29.8068C76.6888 34.6455 75.6468 46.0758 73.9449 49.0964C73.4945 49.972 72.818 50.7074 71.9877 51.2242C71.1573 51.7411 70.2041 52.02 69.2296 52.0314C68.4355 52.0387 67.6516 51.8499 66.9457 51.4813C66.2398 51.1126 65.6331 50.5753 65.1782 49.9157C64.6632 49.1616 64.1362 47.2172 63.7017 44.7428C63.6051 45.2279 63.5045 45.6844 63.3959 46.1165C63.6976 47.781 64.2671 49.384 65.0817 50.8615C66.247 52.7392 67.7478 54.3802 69.5072 55.7002L69.8693 55.9855C71.3539 55.5779 72.8104 55.1458 74.2266 54.6933C74.3333 54.6598 74.4487 54.6706 74.5476 54.7233C74.6464 54.7761 74.7205 54.8664 74.7536 54.9746C74.7867 55.0827 74.776 55.1997 74.7239 55.2998C74.6719 55.4 74.5827 55.475 74.476 55.5086C73.269 55.9162 72.0178 56.2749 70.7545 56.6255C71.3051 56.9966 71.9129 57.2721 72.5529 57.4408C73.6915 57.7139 75.0191 57.4652 75.7715 56.5521C76.4434 55.7368 76.5118 54.571 76.548 53.4989C76.6338 51.0802 76.7196 48.6629 76.8055 46.247C76.8244 44.7351 76.9427 43.2262 77.1595 41.7303C77.7268 38.3387 79.2838 35.208 80.1729 31.8899C81.3115 27.6341 81.3316 23.1704 81.6857 18.776C82.0397 14.3817 82.7881 9.86501 85.1658 6.17586C85.1873 6.10249 85.2195 6.03726 85.2624 5.98019Z" fill="#FCCA92"/>
<path d="M38.7816 53.9556C38.7011 53.9556 38.6126 53.98 38.5281 53.9922C38.6072 53.9964 38.6864 53.9964 38.7655 53.9922C40.3748 53.7721 41.3605 52.0519 41.9076 50.4825C44.5026 43.0512 43.4606 34.8902 42.3864 27.0839C41.7561 22.4911 41.1258 17.897 40.4955 13.3015C39.9282 9.18028 39.4052 4.79814 40.4955 0.872559C39.6698 0.945994 38.9002 1.32644 38.335 1.94058C37.2205 3.11051 36.6452 5.00196 36.7257 7.26437C36.8061 9.6083 37.3412 14.5408 37.9648 20.2559C40.4029 42.6476 41.1513 53.4012 38.7816 53.9556Z" fill="#FCCA92"/>
<path d="M24.5271 46.039C23.5575 45.3175 22.4149 44.6653 21.1717 44.7835C21.1066 44.7826 21.0435 44.8059 20.9943 44.8491C20.9451 44.8922 20.9132 44.9522 20.9048 45.0176C20.8963 45.083 20.9119 45.1492 20.9485 45.2038C20.9851 45.2583 21.0402 45.2973 21.1033 45.3134C22.2671 45.5851 23.3551 46.1202 24.2857 46.8787C24.9536 47.4413 25.5128 48.4156 26.3979 48.6031C26.4263 48.6103 26.456 48.61 26.4842 48.6021C26.5124 48.5942 26.5381 48.5791 26.5587 48.5581C26.5794 48.5372 26.5944 48.5111 26.6022 48.4826C26.6099 48.454 26.6103 48.4239 26.6031 48.3952C26.4703 47.4168 25.2754 46.5934 24.5271 46.039Z" fill="#FFF9DF"/>
<path d="M29.0533 50.9553C28.902 50.6311 28.6544 50.3631 28.3452 50.1889C28.0343 49.9577 27.7423 49.7014 27.4721 49.4225C27.4212 49.3764 27.356 49.3496 27.2877 49.3469C27.2195 49.3442 27.1524 49.3657 27.0981 49.4077C27.0437 49.4497 27.0056 49.5096 26.9901 49.577C26.9747 49.6445 26.983 49.7152 27.0135 49.7772C27.2241 50.1293 27.4768 50.4538 27.7658 50.7433C27.8916 50.8996 28.0498 51.0259 28.2292 51.1132C28.4086 51.2006 28.6048 51.2469 28.8038 51.2488C28.9607 51.2284 29.1136 51.102 29.0533 50.9553Z" fill="#FFF9DF"/>
<path d="M41.9559 2.42143C41.803 2.31545 41.6783 2.5315 41.7749 2.65787C42.516 3.5472 43.1886 4.493 43.7865 5.48689C44.3699 6.53453 44.559 7.71669 45.0981 8.74802C45.1268 8.79303 45.1689 8.82762 45.2184 8.84679C45.2678 8.86595 45.3219 8.8687 45.373 8.85463C45.424 8.84056 45.4694 8.81041 45.5024 8.76853C45.5354 8.72665 45.5545 8.67521 45.5567 8.62165C45.6412 6.40408 43.6779 3.6199 41.9559 2.42143Z" fill="#FFF9DF"/>
<path d="M62.4746 33.1047C62.4517 33.0692 62.4183 33.042 62.3791 33.027C62.3399 33.012 62.2971 33.0101 62.2567 33.0214C62.2164 33.0328 62.1807 33.0569 62.1547 33.0902C62.1288 33.1235 62.114 33.1642 62.1125 33.2066C62.4424 36.427 61.3078 39.4639 61.501 42.6558C61.501 43.0634 62.1326 43.1857 62.2251 42.7577C62.8769 39.684 63.7862 36.1131 62.4746 33.1047Z" fill="#FFF9DF"/>
<path d="M61.0946 43.9966C60.493 44.9305 60.2312 46.0476 60.3543 47.1558C60.3865 47.3433 60.6239 47.3311 60.7084 47.2047C61.253 46.3125 61.6054 45.3137 61.7424 44.2738C61.7664 44.1894 61.7591 44.099 61.7218 44.0198C61.6845 43.9405 61.6198 43.8779 61.54 43.8437C61.4601 43.8095 61.3707 43.8062 61.2886 43.8344C61.2065 43.8626 61.1375 43.9203 61.0946 43.9966Z" fill="#FFF9DF"/>
<path d="M73.1564 36.8467C73.1339 36.8025 73.097 36.7674 73.052 36.7475C73.007 36.7276 72.9565 36.7241 72.9092 36.7375C72.8619 36.7509 72.8206 36.7805 72.7924 36.8212C72.7641 36.8619 72.7505 36.9112 72.754 36.9609C73.3334 39.5902 72.8989 41.9382 72.6374 44.5593C72.6374 44.6775 72.8023 44.7183 72.8546 44.6205C74.1421 42.2643 73.8524 39.3374 73.1564 36.8467Z" fill="#FFF9DF"/>
<path d="M87.1332 15.6046C87.1332 13.7988 87.1332 11.9929 87.093 10.1871C87.093 10.1557 87.0807 10.1256 87.0588 10.1035C87.0369 10.0813 87.0072 10.0688 86.9763 10.0688C86.9453 10.0688 86.9157 10.0813 86.8938 10.1035C86.8719 10.1256 86.8596 10.1557 86.8596 10.1871C86.6866 11.9929 86.5217 13.7988 86.3929 15.6046C86.2803 17.1536 85.9906 18.7964 86.413 20.3006C86.4252 20.3356 86.4478 20.366 86.4777 20.3874C86.5076 20.4089 86.5434 20.4204 86.58 20.4204C86.6166 20.4204 86.6524 20.4089 86.6823 20.3874C86.7122 20.366 86.7348 20.3356 86.747 20.3006C87.3062 18.8331 87.1211 17.1618 87.1332 15.6046Z" fill="#FFF9DF"/>
<path d="M86.4694 22.0738C86.4694 21.7558 86.0228 21.768 85.9906 22.0738C85.894 23.0602 85.8136 24.0386 86.2561 24.9272C86.3286 25.0699 86.5056 24.9802 86.5217 24.8539C86.6383 23.9367 86.4533 23.0113 86.4694 22.0738Z" fill="#FFF9DF"/>
<path d="M83.7054 64.1339C83.4888 65.8184 83.0685 67.4695 82.4541 69.0501C81.9472 70.4768 81.0219 71.8669 80.8931 73.3955C80.8946 73.4506 80.9118 73.504 80.9426 73.5494C80.9734 73.5947 81.0164 73.6301 81.0666 73.6512C81.1168 73.6723 81.172 73.6783 81.2254 73.6683C81.2789 73.6584 81.3283 73.633 81.3679 73.5953C82.426 72.4783 82.8846 70.7418 83.3795 69.311C83.9381 67.6418 84.242 65.896 84.2807 64.1339C84.3048 63.7467 83.7456 63.767 83.7054 64.1339Z" fill="#FFF9DF"/>
<path d="M79.7746 75.1201C79.3265 75.4968 78.9216 75.9234 78.5677 76.3919C78.2257 76.8321 77.7308 77.3458 77.6504 77.9165C77.6182 78.1244 77.7751 78.369 78.0165 78.2874C78.5596 78.104 78.9418 77.57 79.316 77.1501C79.738 76.6752 80.1026 76.1511 80.4023 75.5888C80.4359 75.5049 80.441 75.412 80.4167 75.3248C80.3925 75.2376 80.3402 75.1611 80.2682 75.1074C80.1963 75.0536 80.1087 75.0257 80.0193 75.028C79.9299 75.0303 79.8438 75.0627 79.7746 75.1201Z" fill="#FFF9DF"/>
<path d="M79.662 54.6649C79.6609 54.6281 79.6494 54.5924 79.6288 54.562C79.6082 54.5317 79.5794 54.508 79.5459 54.4938C79.5123 54.4796 79.4755 54.4755 79.4397 54.482C79.4039 54.4885 79.3708 54.5053 79.3442 54.5304C77.4331 56.4463 77.6101 60.1069 74.8824 61.3665C74.7938 61.4072 74.8582 61.5499 74.9467 61.5255C76.2784 61.1545 77.0147 60.1517 77.763 59.0389C78.5677 57.8322 79.7465 56.1894 79.662 54.6649Z" fill="#FCCA92"/>
<path d="M80.873 53.8777C80.7845 53.5761 80.2735 53.6209 80.3138 53.9552C80.3575 54.3503 80.3749 54.748 80.3661 55.1455C80.3661 55.5531 80.189 55.9608 80.3661 56.3684C80.4063 56.4622 80.527 56.5478 80.6236 56.4744C81.2954 55.9485 81.0862 54.6237 80.873 53.8777Z" fill="#FCCA92"/>
<path d="M81.8909 31.3518C81.5473 32.5619 81.3196 33.8028 81.211 35.0572C81.211 35.1836 81.4 35.2448 81.4523 35.1265C81.8994 33.954 82.2335 32.7403 82.4501 31.5026C82.5346 31.1398 81.9754 30.9808 81.8909 31.3518Z" fill="#FCCA92"/>
<path d="M42.3582 69.7598C41.3041 69.4215 40.1334 69.6171 39.0431 69.3889C37.6908 69.0955 36.4407 68.4411 35.4221 67.4933C35.4004 67.4779 35.3741 67.4708 35.3477 67.4731C35.3213 67.4754 35.2965 67.4871 35.2778 67.5061C35.2591 67.5251 35.2475 67.5501 35.2452 67.5769C35.2429 67.6036 35.25 67.6303 35.2652 67.6523C36.7257 69.3889 40.1776 71.745 42.4226 70.1552C42.4589 70.1328 42.4878 70.0999 42.5056 70.0608C42.5233 70.0216 42.5291 69.978 42.5221 69.9355C42.5152 69.893 42.4959 69.8536 42.4667 69.8223C42.4375 69.791 42.3997 69.7692 42.3582 69.7598Z" fill="#FCCA92"/>
<path d="M43.9957 68.3696C43.0709 68.4423 42.1428 68.4641 41.2156 68.4349C41.1686 68.434 41.1225 68.4476 41.0833 68.4738C41.044 68.4999 41.0135 68.5375 40.9957 68.5816C40.9778 68.6256 40.9735 68.6741 40.9834 68.7206C40.9932 68.7672 41.0166 68.8097 41.0507 68.8425C41.9318 69.5477 43.348 69.7148 44.2009 68.8792C44.2423 68.8378 44.2707 68.7849 44.2824 68.7271C44.2942 68.6694 44.2887 68.6094 44.2667 68.5548C44.2447 68.5002 44.2072 68.4535 44.159 68.4205C44.1107 68.3875 44.0539 68.3698 43.9957 68.3696Z" fill="#FCCA92"/>
<path d="M65.4196 82.3434C64.9073 82.1839 64.3744 82.1028 63.8385 82.1029C63.2327 82.0742 62.6256 82.0988 62.024 82.1763C62.0009 82.183 61.9802 82.1964 61.9644 82.2147C61.9486 82.2331 61.9384 82.2557 61.935 82.2798C61.9316 82.304 61.9351 82.3286 61.9452 82.3507C61.9553 82.3728 61.9715 82.3915 61.9918 82.4045C62.4853 82.6901 63.0347 82.8627 63.6011 82.91C63.9419 82.9454 64.2845 82.9604 64.627 82.9549C64.927 82.8985 65.2137 82.7851 65.4719 82.6206C65.5805 82.5513 65.5323 82.3679 65.4196 82.3434Z" fill="#FCCA92"/>
</g>
<defs>
<clipPath id="clip0_4634_115">
<rect width="74" height="86" fill="white" transform="translate(15)"/>
</clipPath>
</defs>
</svg>
