<svg width="104" height="106" viewBox="0 0 104 106" fill="none" xmlns="http://www.w3.org/2000/svg">
<path opacity="0.3" d="M0.001235 44.2096C0.21139 23.9377 58.0041 -1.43224 84.0634 5.41554C110.123 12.2633 114.266 102.853 74.4263 105.84C34.5868 108.826 -0.238943 69.4891 0.001235 44.2096Z" fill="#FFC857"/>
<path d="M38.389 78.7454C42.4431 83.1991 49.0242 85.46 57.9833 85.46C58.5108 85.46 59.0213 85.46 59.5573 85.4387C73.7319 85.0419 79.8918 72.6835 82.8526 66.741L82.9037 66.6471C85.4008 61.6389 91.6501 55.2485 96.6699 50.1123C97.8781 48.8794 99.0181 47.7106 100.001 46.6697C100.754 45.8762 100.992 45.1339 100.707 44.4727C100.175 43.2313 97.8738 42.3653 95.1172 42.3653C92.5567 42.3805 90.0404 43.0361 87.7963 44.2726C85.5522 45.5092 83.6512 47.2876 82.2656 49.4468C81.5679 50.5517 80.7894 50.782 80.2619 50.782C79.3856 50.782 78.4709 50.1464 77.7477 49.0373C77.1163 48.0928 76.7584 46.9911 76.714 45.8549C76.714 44.9164 76.5991 40.3816 76.4502 34.6482C76.2078 25.2631 75.8759 12.4652 75.8759 8.06702C75.8759 4.79503 73.9786 3.32754 72.0941 3.32754C71.121 3.32068 70.1846 3.69974 69.489 4.38213C68.7933 5.06452 68.3948 5.99494 68.3802 6.97067L68.1931 10.5967C67.7677 19.1286 66.9168 35.0065 66.6999 36.6788C66.6403 37.1054 66.334 37.1566 66.2404 37.1566C65.7214 37.1566 65.7172 37.1566 65.4832 32.464C65.3556 29.8661 65.211 26.3637 65.0578 22.6523C64.76 15.6306 64.4282 7.66602 64.1602 4.73531C63.8922 1.80459 61.9268 0.861816 60.1614 0.861816C58.2598 0.861816 56.0902 2.02642 55.8222 4.18926C55.2692 8.61306 54.7076 33.7523 54.7076 35.4801C54.7169 35.5412 54.7128 35.6036 54.6956 35.663C54.6784 35.7224 54.6485 35.7773 54.6081 35.824C54.5676 35.8707 54.5175 35.908 54.4612 35.9333C54.405 35.9586 54.3439 35.9713 54.2822 35.9706C54.2236 35.9756 54.1646 35.9683 54.109 35.9492C54.0533 35.9301 54.0022 35.8996 53.9589 35.8597C53.8951 35.8 53.8611 35.7701 53.8313 35.5057C53.8313 35.4673 53.8313 35.4203 53.8313 35.3649C53.7973 34.9852 53.7717 34.2813 53.7207 32.8949C53.4739 26.2827 52.8103 8.67705 52.1637 5.64395C51.8021 3.93757 50.1217 3.3446 48.6711 3.3446C46.7397 3.3446 44.6467 4.41109 44.3745 6.44595C44.0554 8.84342 43.8214 18.0792 43.6385 25.502C43.4769 31.9009 43.3705 35.8256 43.2514 36.4228C43.24 36.5379 43.187 36.6449 43.1023 36.7235C43.0177 36.8021 42.9073 36.8469 42.7919 36.8494C42.2091 36.8494 42.2176 36.8494 41.32 27.2297C40.8946 22.7206 40.4267 17.6142 40.1672 16.5648C39.9077 15.5154 38.5421 14.6835 37.2744 14.6835C35.9344 14.6835 35.0878 15.6306 34.8836 17.3497C34.6326 19.4827 34.556 25.2887 34.4582 31.999C34.3476 40.0062 34.2242 49.0629 33.7648 54.2801L33.6669 55.2186C33.1182 61.4597 32.161 71.9028 38.389 78.7454ZM70.6434 54.101C70.6993 54.0889 70.757 54.088 70.8132 54.0983C70.8694 54.1086 70.923 54.13 70.971 54.1611C71.019 54.1922 71.0604 54.2324 71.0929 54.2796C71.1254 54.3267 71.1483 54.3798 71.1603 54.4358C71.1723 54.4919 71.1732 54.5497 71.1629 54.6061C71.1526 54.6624 71.1314 54.7162 71.1004 54.7644C71.0694 54.8125 71.0292 54.854 70.9822 54.8866C70.9352 54.9192 70.8822 54.9421 70.8263 54.9542C70.3584 55.0565 59.4084 57.582 58.3321 71.0752C58.3256 71.1839 58.2779 71.2859 58.1988 71.3604C58.1197 71.435 58.0152 71.4764 57.9067 71.4762H57.8727C57.8148 71.4731 57.7582 71.4581 57.7063 71.4323C57.6544 71.4064 57.6083 71.3702 57.5709 71.3259C57.5335 71.2816 57.5054 71.23 57.4886 71.1745C57.4717 71.1189 57.4663 71.0604 57.4728 71.0027C58.5874 56.8525 70.5201 54.1266 70.6434 54.101ZM40.1672 50.765C40.1804 50.7083 40.2051 50.655 40.2396 50.6083C40.2742 50.5615 40.3179 50.5224 40.3681 50.4932C40.4183 50.464 40.4739 50.4454 40.5316 50.4386C40.5892 50.4318 40.6476 50.4369 40.7032 50.4536C40.8691 50.5005 57.1707 54.856 67.8059 51.3068C67.916 51.27 68.036 51.2785 68.1397 51.3305C68.2434 51.3825 68.3223 51.4737 68.359 51.584C68.3956 51.6944 68.3871 51.8148 68.3353 51.9188C68.2834 52.0228 68.1925 52.1019 68.0825 52.1386C64.8579 53.2179 61.1823 53.5976 57.5876 53.5976C49.0412 53.5976 40.9542 51.4347 40.4777 51.3068C40.4208 51.2935 40.3671 51.2687 40.3201 51.2338C40.2732 51.1988 40.2339 51.1546 40.2047 51.1037C40.1756 51.0529 40.1572 50.9966 40.1508 50.9383C40.1443 50.88 40.1499 50.821 40.1672 50.765Z" fill="#FFDCAD"/>
<path d="M57.9833 86.3387C58.5065 86.3387 59.034 86.3387 59.5786 86.3387C74.2764 85.9121 80.598 73.2507 83.6354 67.1419L83.6822 67.048C86.1155 62.1635 92.3137 55.8286 97.2952 50.735C98.5034 49.4979 99.6478 48.329 100.635 47.2839C101.911 45.9444 101.809 44.8309 101.511 44.1356C100.822 42.5316 98.312 41.495 95.1299 41.495C92.4223 41.511 89.7616 42.2045 87.3889 43.5126C85.0162 44.8208 83.0066 46.7021 81.5424 48.986C81.151 49.6003 80.7256 49.9117 80.2662 49.9117C79.7004 49.9117 79.0325 49.4083 78.4837 48.5637C77.9475 47.7616 77.64 46.8279 77.5946 45.8633C77.5946 44.912 77.4797 40.3773 77.3308 34.631C77.0884 25.2673 76.7565 12.4481 76.7565 8.07546C76.7565 4.19344 74.4168 2.45719 72.077 2.45719C70.8775 2.44575 69.722 2.91008 68.8622 3.74905C68.0025 4.58802 67.5082 5.73366 67.4869 6.93645L67.2997 10.5582C67.0402 15.6774 66.5893 24.397 66.2447 30.3523C66.1384 28.0316 66.0235 25.3099 65.9129 22.6309C65.6151 15.5963 65.279 7.62327 65.011 4.67976C64.7217 1.22433 62.2118 0 60.1571 0C57.8812 0 55.2819 1.43763 54.9374 4.09532C54.6438 6.4288 54.3503 14.4616 54.1376 21.8332C53.827 14.837 53.4186 7.37584 53.006 5.45616C52.6189 3.63886 50.913 2.46999 48.6583 2.46999C46.4037 2.46999 43.8427 3.79244 43.5066 6.33068C43.1791 8.77507 42.9494 18.0365 42.7622 25.4806C42.7069 27.6135 42.6558 29.7167 42.6048 31.4828C42.4686 30.1134 42.3283 28.5947 42.1794 27.1486C41.754 22.3877 41.2775 17.4648 41.001 16.3599C40.6564 14.9778 38.9463 13.8004 37.2616 13.8004C35.4749 13.8004 34.254 15.0802 34.003 17.2387C33.752 19.3973 33.6669 25.2587 33.5861 31.9947C33.4755 39.9848 33.3521 49.0585 32.897 54.2118L32.8161 55.1418C32.2333 61.5407 31.2591 72.2056 37.7466 79.3383C41.9667 83.9839 48.7774 86.3387 57.9833 86.3387ZM33.769 54.2886C34.2285 49.0884 34.3519 40.0147 34.4625 31.9947C34.556 25.2843 34.6326 19.4869 34.8879 17.3454C35.0921 15.639 35.9386 14.6792 37.2787 14.6792C38.5549 14.6792 39.9247 15.575 40.1714 16.5604C40.4182 17.5459 40.8989 22.7205 41.3243 27.2296C42.2219 36.8493 42.2134 36.8365 42.7962 36.8493C42.9115 36.8468 43.0219 36.802 43.1066 36.7234C43.1912 36.6448 43.2442 36.5378 43.2556 36.4227C43.3748 35.8255 43.4811 31.8838 43.6428 25.5019C43.8257 18.0791 44.0682 8.86466 44.3787 6.44586C44.651 4.411 46.744 3.34451 48.6753 3.34451C50.126 3.34451 51.8064 3.94601 52.1679 5.64386C52.8146 8.67696 53.4782 26.2826 53.7249 32.9119C53.776 34.2983 53.8015 35.0022 53.8355 35.3819C53.8355 35.4373 53.8355 35.4842 53.8355 35.5226C53.8653 35.7871 53.8994 35.817 53.9632 35.8767C54.0065 35.9166 54.0576 35.947 54.1132 35.9661C54.1689 35.9852 54.2279 35.9925 54.2865 35.9876C54.3481 35.9883 54.4092 35.9756 54.4655 35.9502C54.5217 35.9249 54.5718 35.8876 54.6123 35.841C54.6528 35.7943 54.6826 35.7394 54.6998 35.68C54.717 35.6206 54.7211 35.5582 54.7119 35.497C54.7119 33.7906 55.2734 8.6215 55.8265 4.20623C56.0945 2.04339 58.264 0.878787 60.1656 0.878787C61.9311 0.878787 63.9092 1.89409 64.1645 4.75228C64.4197 7.61047 64.7643 15.6347 65.0621 22.6693C65.2195 26.3807 65.3641 29.883 65.4875 32.481C65.7215 37.1735 65.7257 37.1735 66.2447 37.1735C66.3383 37.1735 66.6446 37.1352 66.7041 36.6958C66.9424 35.0235 67.7592 19.1456 68.1973 10.6137L68.3845 6.98764C68.3946 6.00968 68.7906 5.07554 69.4858 4.3896C70.181 3.70365 71.1188 3.32175 72.0941 3.32745C73.9786 3.32745 75.8759 4.79494 75.8759 8.06693C75.8759 12.4481 76.2078 25.2801 76.4502 34.6481C76.5991 40.3815 76.714 44.9163 76.714 45.8548C76.7584 46.991 77.1163 48.0927 77.7477 49.0372C78.4709 50.1463 79.3856 50.782 80.2619 50.782C80.7894 50.782 81.5679 50.5516 82.2656 49.4467C83.6513 47.2875 85.5522 45.5091 87.7963 44.2725C90.0404 43.036 92.5566 42.3804 95.1171 42.3652C97.8738 42.3652 100.175 43.2184 100.707 44.4726C100.992 45.1338 100.754 45.8761 100.001 46.6696C99.0181 47.7105 97.8738 48.8793 96.6699 50.1122C91.6501 55.2313 85.4008 61.6303 82.9037 66.647L82.8526 66.7409C79.8748 72.6834 73.7319 85.0419 59.5573 85.4386C59.0213 85.4386 58.5108 85.4386 57.9833 85.4599C49.0497 85.4599 42.4431 83.199 38.389 78.7453C32.161 71.9027 33.1182 61.4596 33.6669 55.2186L33.769 54.2886Z" fill="#D79054"/>
<path d="M57.46 71.0067C57.4536 71.0644 57.459 71.1229 57.4758 71.1785C57.4927 71.234 57.5207 71.2856 57.5582 71.3299C57.5956 71.3743 57.6417 71.4105 57.6936 71.4363C57.7455 71.4621 57.8021 71.4771 57.8599 71.4802H57.9152C58.0238 71.4804 58.1283 71.439 58.2074 71.3644C58.2865 71.2899 58.3341 71.1879 58.3406 71.0792C59.4169 57.586 70.3669 55.0605 70.8349 54.9582C70.8907 54.9461 70.9437 54.9231 70.9907 54.8906C71.0377 54.858 71.0779 54.8165 71.1089 54.7684C71.1399 54.7202 71.1612 54.6664 71.1714 54.6101C71.1817 54.5537 71.1808 54.4959 71.1688 54.4398C71.1568 54.3838 71.1339 54.3307 71.1014 54.2836C71.069 54.2364 71.0275 54.1962 70.9796 54.1651C70.9316 54.134 70.8779 54.1126 70.8217 54.1023C70.7655 54.092 70.7078 54.0929 70.652 54.105C70.5201 54.1263 58.5874 56.8522 57.46 71.0067Z" fill="#D79054"/>
<path d="M40.4735 51.3152C40.9499 51.4432 49.0369 53.606 57.5834 53.606C61.1781 53.606 64.8536 53.2263 68.0782 52.147C68.1327 52.1288 68.183 52.1001 68.2264 52.0623C68.2698 52.0246 68.3053 51.9787 68.331 51.9272C68.3567 51.8757 68.372 51.8196 68.3761 51.7622C68.3801 51.7048 68.3729 51.6471 68.3547 51.5925C68.3366 51.5378 68.3079 51.4873 68.2702 51.4439C68.2326 51.4004 68.1868 51.3647 68.1355 51.339C68.0841 51.3132 68.0282 51.2979 67.9709 51.2938C67.9137 51.2897 67.8562 51.297 67.8017 51.3152C57.1665 54.8687 40.8649 50.5132 40.6989 50.462C40.6431 50.4471 40.5848 50.4435 40.5276 50.4512C40.4703 50.4589 40.4151 50.4779 40.3651 50.507C40.3151 50.5361 40.2714 50.5748 40.2363 50.6209C40.2013 50.667 40.1756 50.7195 40.1608 50.7755C40.146 50.8316 40.1423 50.89 40.15 50.9474C40.1577 51.0048 40.1767 51.0602 40.2057 51.1103C40.2347 51.1604 40.2733 51.2043 40.3193 51.2394C40.3652 51.2746 40.4176 51.3003 40.4735 51.3152Z" fill="#D79054"/>
<path d="M96.9507 42.502C97.2495 42.9965 97.4273 43.5549 97.4697 44.1315C97.5931 46.1067 96.4104 47.9368 95.0278 49.3488C90.6164 53.8665 83.946 55.6582 79.6749 60.3123C77.3138 62.8719 75.8462 66.1396 73.8425 68.9893C71.8388 71.8389 68.8908 74.4198 65.4109 74.5052C64.3517 74.5052 63.2839 74.3175 62.2374 74.4454C61.1909 74.5734 60.0848 75.1621 59.7955 76.1817C59.6552 76.6893 59.7317 77.2354 59.6339 77.7558C59.4595 78.6517 58.7831 79.3556 58.1109 79.9784C55.9993 81.9261 53.6458 83.5922 51.1087 84.9354C53.3824 85.296 55.6814 85.4714 57.9833 85.4601C58.5108 85.4601 59.0213 85.4601 59.5573 85.4388C73.7319 85.0421 79.8918 72.6836 82.8527 66.7411L82.9037 66.6473C85.4009 61.639 91.6501 55.2486 96.6699 50.1124C97.8781 48.8796 99.0182 47.7107 100.001 46.6698C100.754 45.8763 100.992 45.134 100.707 44.4728C100.299 43.513 98.848 42.792 96.9507 42.502Z" fill="#FCCA92"/>
<path d="M37.8827 70.2648C37.1804 66.422 37.2237 62.4793 38.0104 58.6529C38.3422 57.066 38.8101 55.4662 39.7545 54.148C40.5153 53.0443 41.6435 52.2487 42.9366 51.9041C41.52 51.597 40.6266 51.3538 40.4777 51.3154C40.4219 51.3006 40.3695 51.2749 40.3235 51.2397C40.2776 51.2046 40.239 51.1607 40.2099 51.1106C40.1809 51.0605 40.162 51.0051 40.1543 50.9477C40.1466 50.8902 40.1502 50.8318 40.1651 50.7758C40.1799 50.7198 40.2055 50.6672 40.2406 50.6212C40.2756 50.5751 40.3194 50.5364 40.3694 50.5073C40.4193 50.4781 40.4745 50.4592 40.5318 50.4515C40.5891 50.4437 40.6473 50.4474 40.7032 50.4623C40.733 50.4623 41.303 50.6244 42.2644 50.8419C39.6315 48.99 37.697 46.3032 36.7724 43.2144C36.0705 40.8041 36.0194 38.2574 35.9854 35.749C35.9259 31.0649 35.9259 26.3823 35.9854 21.7012C35.9854 19.3506 36.0662 16.9446 36.8362 14.7349C35.7727 14.9396 35.1006 15.8525 34.9219 17.3584C34.6709 19.4914 34.5943 25.2974 34.4965 32.0077C34.3859 40.0149 34.2625 49.0716 33.8031 54.2888L33.6669 55.2188C33.1182 61.4599 32.161 71.903 38.389 78.7456C39.4559 79.9052 40.6786 80.9103 42.022 81.7317C40.1587 78.0886 38.6229 74.2919 37.8827 70.2648Z" fill="#FCCA92"/>
<path d="M43.2514 36.423C43.2514 36.423 43.2514 36.4486 43.2514 36.4614C43.7331 36.3768 44.1877 36.1777 44.577 35.8808C44.9663 35.584 45.279 35.1979 45.4891 34.755C45.9322 33.724 46.1498 32.6097 46.1272 31.4873C46.4292 23.8896 45.3061 16.2109 46.5398 8.69C46.7924 6.82792 47.3683 5.02461 48.2414 3.36182C46.4462 3.51112 44.6382 4.56482 44.3872 6.4461C44.0682 8.84357 43.8342 18.0794 43.6513 25.5021C43.4769 31.884 43.3705 35.8343 43.2514 36.423Z" fill="#FCCA92"/>
<path d="M55.8179 4.20635C55.2649 8.63015 54.7034 33.7694 54.7034 35.4972C54.7034 35.5185 54.7034 35.5313 54.7034 35.5483C56.7028 32.6603 57.5919 29.1025 57.9152 25.5959C58.2598 21.8845 58.0216 18.1475 58.1237 14.4191C58.2181 10.8064 58.6295 7.20913 59.3531 3.66884C59.5029 2.69592 59.8196 1.75634 60.289 0.891706H60.1571C58.2555 0.878908 56.0859 2.04351 55.8179 4.20635Z" fill="#FCCA92"/>
<path d="M54.3546 35.9791V36.0303L54.4018 35.9663L54.3546 35.9791Z" fill="#FCCA92"/>
<path d="M65.7512 36.542C65.7172 36.7681 65.6789 36.9942 65.6321 37.216C65.7172 37.1478 65.7938 37.071 65.8746 36.9942C65.81 36.8509 65.7684 36.6983 65.7512 36.542Z" fill="#FCCA92"/>
<path d="M69.5076 28.4968C69.7969 25.2418 69.3757 21.9741 69.3417 18.7107C69.2935 14.3027 69.9513 9.91546 71.29 5.71656C71.5352 4.87536 71.9021 4.07479 72.3791 3.34042C72.2897 3.34042 72.1962 3.34042 72.1026 3.34042C71.1295 3.33356 70.1931 3.71262 69.4975 4.39501C68.8018 5.0774 68.4033 6.00782 68.3888 6.98355L68.2016 10.6096C67.7762 18.4846 67.07 32.6177 66.7765 36.056C68.4568 33.9657 69.2693 31.2014 69.5076 28.4968Z" fill="#FCCA92"/>
<path d="M77.735 52.0192C78.2678 52.012 78.788 51.8554 79.2366 51.567C79.6426 51.3357 80.0283 51.0703 80.3895 50.7736H80.2619C79.3855 50.7736 78.4709 50.1379 77.7477 49.0288C77.1162 48.0843 76.7584 46.9826 76.714 45.8464C76.714 45.2747 76.6714 43.3721 76.6034 40.6846C76.4417 41.3714 76.2673 42.0539 76.0674 42.7322C75.6074 44.0744 75.2672 45.4549 75.0506 46.8574C74.9017 48.2694 75.1059 49.7796 75.9525 50.9186C76.1523 51.2207 76.4152 51.4756 76.7229 51.6656C77.0307 51.8557 77.376 51.9763 77.735 52.0192Z" fill="#FCCA92"/>
<path d="M66.3298 79.3468C67.2657 79.0866 68.4228 78.5192 68.2994 77.5551C65.1769 76.7019 61.7524 75.5757 60.1911 72.7346C58.7448 70.1025 59.4084 66.7623 60.8505 64.1174C62.5755 60.9963 65.262 58.5194 68.5079 57.0572C69.4225 56.6306 70.3967 56.3107 71.1624 55.6622C71.9282 55.0138 72.4386 53.9559 72.1196 52.9875C71.4971 52.6231 70.762 52.5031 70.0564 52.6505C70.3031 51.7717 69.631 50.8502 68.7801 50.4919C67.9293 50.1336 66.9977 50.1933 66.0916 50.2615L52.1594 51.3067C49.7984 51.4859 47.4204 51.665 45.0679 51.375C42.1794 51.0209 39.427 49.98 36.7044 48.9434C35.1889 51.4928 34.5884 54.4853 35.0027 57.4241L36.5214 60.214C36.6108 57.1596 39.5546 54.8304 42.5537 54.263C43.8624 54.0155 45.2056 54.0155 46.5143 54.263C47.7905 54.5019 49.0029 54.9712 50.2621 55.274C53.6654 56.0974 57.2346 55.7006 60.7101 55.274C61.076 55.7006 60.774 56.3704 60.4421 56.8311C59.2552 58.4948 57.7578 59.9282 56.6943 61.673C55.6008 63.5228 55.0255 65.6343 55.0293 67.7848C55.033 69.9352 55.6156 72.0447 56.7156 73.8907C57.2899 74.8207 57.9918 75.6781 58.4172 76.6934C59.0213 78.178 58.9277 79.8417 58.8426 81.4414L66.3298 79.3468ZM57.5876 53.6061C49.0412 53.6061 40.9542 51.4432 40.4777 51.3152C40.4219 51.3004 40.3695 51.2746 40.3235 51.2395C40.2776 51.2043 40.239 51.1605 40.2099 51.1103C40.1809 51.0602 40.162 51.0049 40.1543 50.9474C40.1466 50.89 40.1503 50.8316 40.1651 50.7756C40.1799 50.7196 40.2055 50.667 40.2406 50.6209C40.2756 50.5749 40.3194 50.5362 40.3694 50.507C40.4193 50.4779 40.4745 50.459 40.5318 50.4512C40.5891 50.4435 40.6473 50.4472 40.7032 50.462C40.8691 50.509 57.1707 54.8645 67.806 51.3152C67.8604 51.297 67.9179 51.2898 67.9752 51.2938C68.0325 51.2979 68.0884 51.3133 68.1397 51.339C68.1911 51.3648 68.2369 51.4004 68.2745 51.4439C68.3121 51.4874 68.3408 51.5379 68.359 51.5925C68.3771 51.6471 68.3844 51.7048 68.3803 51.7622C68.3762 51.8197 68.3609 51.8757 68.3353 51.9272C68.3096 51.9787 68.274 52.0247 68.2307 52.0624C68.1873 52.1001 68.1369 52.1289 68.0825 52.1471C64.8579 53.2264 61.1823 53.6061 57.5876 53.6061ZM58.3321 71.0965C58.3256 71.2051 58.2779 71.3072 58.1988 71.3817C58.1198 71.4563 58.0152 71.4977 57.9067 71.4975H57.8727C57.8148 71.4944 57.7582 71.4794 57.7063 71.4536C57.6544 71.4277 57.6083 71.3915 57.5709 71.3472C57.5335 71.3028 57.5054 71.2513 57.4886 71.1957C57.4717 71.1401 57.4663 71.0817 57.4728 71.024C58.6001 56.8695 70.5328 54.1436 70.6604 54.118C70.7163 54.1059 70.774 54.105 70.8302 54.1153C70.8864 54.1256 70.94 54.147 70.988 54.1781C71.036 54.2092 71.0774 54.2494 71.1099 54.2966C71.1424 54.3437 71.1653 54.3968 71.1773 54.4528C71.1893 54.5089 71.1902 54.5667 71.1799 54.6231C71.1696 54.6794 71.1484 54.7332 71.1174 54.7814C71.0864 54.8295 71.0462 54.871 70.9992 54.9036C70.9522 54.9361 70.8992 54.9591 70.8434 54.9712C70.3584 55.0607 59.4084 57.5905 58.3406 71.0794L58.3321 71.0965Z" fill="#FCCA92"/>
<path d="M89.4933 44.8862C88.3064 44.9246 87.3662 45.6669 86.4899 46.3964C85.6136 47.1259 84.5543 48.1454 84.2608 49.2716C84.2508 49.3152 84.2549 49.3608 84.2726 49.4018C84.2904 49.4428 84.3207 49.477 84.3593 49.4994C84.3978 49.5218 84.4425 49.5313 84.4868 49.5264C84.5311 49.5215 84.5726 49.5025 84.6053 49.4721C85.4221 48.8152 86.0262 47.8809 86.8175 47.177C87.6683 46.4006 88.7743 45.9357 89.5741 45.0867C89.5895 45.0701 89.5998 45.0494 89.6039 45.0271C89.608 45.0048 89.6057 44.9818 89.5972 44.9607C89.5887 44.9397 89.5745 44.9215 89.5561 44.9083C89.5376 44.8951 89.5159 44.8875 89.4933 44.8862Z" fill="#FFF9DF"/>
<path d="M92.586 43.4873C91.7905 43.1717 90.9652 43.5641 90.3951 44.1315C90.3366 44.1922 90.3019 44.272 90.2974 44.3563C90.293 44.4406 90.3191 44.5237 90.3709 44.5902C90.4227 44.6567 90.4968 44.7022 90.5794 44.7182C90.6621 44.7343 90.7477 44.7198 90.8206 44.6776C91.4161 44.3576 92.0585 44.1528 92.6243 43.7774C92.6499 43.7607 92.6702 43.7371 92.683 43.7093C92.6957 43.6815 92.7004 43.6506 92.6964 43.6203C92.6924 43.5899 92.6799 43.5613 92.6604 43.5378C92.6408 43.5143 92.615 43.4968 92.586 43.4873Z" fill="#FFF9DF"/>
<path d="M73.5702 4.62025C73.5174 4.59408 73.4572 4.58702 73.3998 4.60029C73.3424 4.61355 73.2914 4.64631 73.2553 4.69302C73.2193 4.73972 73.2004 4.7975 73.202 4.85654C73.2036 4.91559 73.2255 4.97227 73.264 5.01698C73.4387 5.20305 73.5696 5.4261 73.6468 5.66967C73.6972 5.91935 73.7713 6.16363 73.868 6.39915C73.8792 6.41805 73.8945 6.43415 73.9128 6.44625C73.931 6.45836 73.9518 6.46614 73.9735 6.46901C73.9952 6.47189 74.0173 6.46978 74.0381 6.46285C74.0589 6.45592 74.0778 6.44435 74.0935 6.42901C74.7444 5.92137 74.0807 4.92313 73.5702 4.62025Z" fill="#FFF9DF"/>
<path d="M74.8933 10.8227C74.7869 9.71786 74.7954 8.60444 74.6805 7.50383C74.6805 7.44726 74.6581 7.393 74.6182 7.353C74.5784 7.313 74.5243 7.29053 74.4678 7.29053C74.4114 7.29053 74.3573 7.313 74.3174 7.353C74.2775 7.393 74.2551 7.44726 74.2551 7.50383C74.1615 8.60814 74.1615 9.71843 74.2551 10.8227C74.3019 11.7826 74.2551 12.8747 74.7954 13.7065C74.8066 13.7247 74.8227 13.7393 74.8419 13.7485C74.8611 13.7577 74.8825 13.7611 74.9036 13.7584C74.9247 13.7557 74.9446 13.747 74.9609 13.7332C74.9771 13.7195 74.9891 13.7013 74.9953 13.6809C75.2506 12.7595 74.9826 11.7613 74.8933 10.8227Z" fill="#FFF9DF"/>
<path d="M61.5014 2.36354C61.4635 2.34929 61.4215 2.35027 61.3842 2.36627C61.347 2.38227 61.3173 2.41206 61.3014 2.44944C61.2855 2.48682 61.2846 2.52891 61.2989 2.56694C61.3132 2.60497 61.3415 2.63602 61.378 2.65362C61.5786 2.77615 61.7581 2.93028 61.9098 3.11008C62.066 3.32621 62.1694 3.57606 62.2118 3.83956C62.227 3.89435 62.2615 3.94177 62.3089 3.97298C62.3563 4.0042 62.4133 4.0171 62.4695 4.00927C62.5257 4.00145 62.5771 3.97344 62.6142 3.93046C62.6513 3.88747 62.6716 3.83243 62.6713 3.77557C62.65 3.44647 62.5253 3.13259 62.3152 2.87893C62.105 2.62526 61.8201 2.44484 61.5014 2.36354Z" fill="#FFF9DF"/>
<path d="M63.5348 8.62133C63.3817 7.44393 63.169 6.27506 62.9393 5.11045C62.8967 4.90995 62.5522 4.95261 62.5734 5.16164C62.701 6.31345 62.8074 7.46526 62.9138 8.62133C63.0116 9.6409 62.9138 10.7543 63.3392 11.6843C63.356 11.7121 63.3806 11.7344 63.4099 11.7484C63.4393 11.7624 63.4721 11.7674 63.5042 11.7628C63.5364 11.7583 63.5665 11.7444 63.5908 11.7229C63.6152 11.7013 63.6327 11.6731 63.6412 11.6416C63.956 10.6647 63.6582 9.6025 63.5348 8.62133Z" fill="#FFF9DF"/>
<path d="M49.7218 4.84195C49.4838 4.6622 49.1982 4.55684 48.9008 4.53907C48.8627 4.53876 48.8254 4.54985 48.7936 4.57092C48.7619 4.592 48.7371 4.62209 48.7225 4.65736C48.7079 4.69263 48.7041 4.73147 48.7116 4.76891C48.7191 4.80635 48.7376 4.8407 48.7647 4.86755C48.9519 5.02539 49.1901 5.11071 49.3943 5.25148C49.5985 5.39226 49.7474 5.60129 50.0026 5.62262C50.0303 5.62319 50.0579 5.6182 50.0837 5.60795C50.1095 5.5977 50.133 5.58239 50.1528 5.56293C50.1726 5.54346 50.1883 5.52022 50.199 5.49458C50.2098 5.46894 50.2153 5.4414 50.2153 5.41359C50.1813 5.11924 49.9431 4.98273 49.7218 4.84195Z" fill="#FFF9DF"/>
<path d="M51.0236 6.65051C50.9258 6.4756 50.5982 6.53959 50.628 6.75715C50.7173 7.64447 50.9726 8.5062 51.1214 9.38925C51.3129 10.5197 51.164 11.7227 51.483 12.802C51.4963 12.8407 51.5213 12.8742 51.5544 12.8979C51.5876 12.9217 51.6273 12.9344 51.6681 12.9344C51.7089 12.9344 51.7486 12.9217 51.7818 12.8979C51.8149 12.8742 51.8399 12.8407 51.8532 12.802C52.453 11.1298 51.8702 8.19052 51.0236 6.65051Z" fill="#FFF9DF"/>
<path d="M38.3805 16.4025C38.3039 16.2276 38.2146 16.0612 38.1295 15.8863C38.1112 15.8554 38.085 15.83 38.0535 15.8127C38.0221 15.7955 37.9866 15.787 37.9508 15.7882C37.853 15.7882 37.7551 15.8138 37.6573 15.8309C37.5594 15.8479 37.4616 15.9076 37.3552 15.929C37.3432 15.9336 37.3328 15.9418 37.3255 15.9525C37.3182 15.9631 37.3143 15.9758 37.3143 15.9887C37.3143 16.0016 37.3182 16.0143 37.3255 16.0249C37.3328 16.0356 37.3432 16.0438 37.3552 16.0484C37.4403 16.0698 37.4914 16.1209 37.5807 16.138L37.8147 16.1764C37.887 16.3214 37.9508 16.4665 38.0316 16.603C38.0489 16.6339 38.0743 16.6594 38.105 16.6767C38.1358 16.694 38.1708 16.7025 38.206 16.7011C38.2326 16.7011 38.2589 16.6953 38.2831 16.6843C38.3073 16.6733 38.3289 16.6572 38.3464 16.6371C38.3746 16.6058 38.3929 16.5668 38.399 16.525C38.405 16.4832 38.3986 16.4406 38.3805 16.4025Z" fill="#FFF9DF"/>
<path d="M38.9208 17.2473C38.8357 17.0852 38.5889 17.2004 38.6315 17.3711C39.1547 19.504 39.5418 21.6114 39.8737 23.77C39.8799 23.7911 39.8929 23.8097 39.9105 23.8228C39.9281 23.836 39.9495 23.8431 39.9715 23.8431C39.9935 23.8431 40.0149 23.836 40.0325 23.8228C40.0502 23.8097 40.0631 23.7911 40.0694 23.77C40.3865 21.5286 39.9843 19.2442 38.9208 17.2473Z" fill="#FFF9DF"/>
<path d="M81.1723 56.6946C77.6031 58.5247 74.085 62.7864 73.4554 66.7879C73.4554 66.8945 73.5873 66.9841 73.6426 66.8689C74.5315 64.8953 75.7039 63.0628 77.1224 61.4298C78.4667 59.8813 80.2194 58.7209 81.5041 57.1383C81.5332 57.1164 81.5576 57.0891 81.5761 57.0577C81.5946 57.0264 81.6068 56.9917 81.6119 56.9557C81.6171 56.9196 81.6151 56.8829 81.6061 56.8476C81.5971 56.8124 81.5812 56.7792 81.5594 56.7501C81.5376 56.7209 81.5103 56.6964 81.4791 56.6778C81.4478 56.6593 81.4133 56.6471 81.3773 56.6419C81.3414 56.6368 81.3047 56.6388 81.2696 56.6478C81.2344 56.6569 81.2013 56.6728 81.1723 56.6946Z" fill="#FCCA92"/>
<path d="M83.7162 53.5376C82.3677 53.9898 81.2233 55.0477 80.1513 55.9606C79.9981 56.0929 80.1981 56.3531 80.3682 56.2422C81.5339 55.4658 82.8867 54.8302 83.8949 53.849C83.9224 53.8196 83.9398 53.7822 83.9444 53.7422C83.9491 53.7022 83.9408 53.6617 83.9207 53.6268C83.9007 53.5919 83.87 53.5644 83.8332 53.5483C83.7963 53.5322 83.7553 53.5285 83.7162 53.5376Z" fill="#FCCA92"/>
<path d="M94.9938 45.0317C94.5258 46.3114 93.9175 47.5912 93.7941 48.935C93.7686 49.1995 94.1302 49.2464 94.2536 49.0587C94.998 47.924 95.3171 46.4991 95.7467 45.2194C95.9084 44.7586 95.1639 44.5667 94.9938 45.0317Z" fill="#FCCA92"/>
<path d="M42.1751 74.6159C41.8561 73.2082 41.035 71.954 40.5798 70.5761C40.0321 69.0258 39.7279 67.3995 39.678 65.7555C39.678 65.7227 39.665 65.6913 39.6418 65.6681C39.6187 65.6449 39.5873 65.6318 39.5546 65.6318C39.5219 65.6318 39.4905 65.6449 39.4674 65.6681C39.4442 65.6913 39.4312 65.7227 39.4312 65.7555C39.3547 68.6393 39.4057 72.7645 41.6476 74.9188C41.6964 74.968 41.7601 74.9996 41.8287 75.0089C41.8973 75.0181 41.967 75.0044 42.027 74.97C42.0871 74.9355 42.1341 74.8821 42.1609 74.8181C42.1877 74.7541 42.1927 74.6831 42.1751 74.6159Z" fill="#FCCA92"/>
<path d="M42.1751 77.5124C41.9482 77.1904 41.8116 76.8132 41.7795 76.4203C41.7539 76.0449 41.1413 75.9041 41.0818 76.3264C40.9542 77.2351 41.3923 78.6429 42.4729 78.7452C42.5088 78.7445 42.5441 78.7355 42.5761 78.7191C42.608 78.7028 42.6359 78.6793 42.6576 78.6506C42.6793 78.6219 42.6942 78.5886 42.7013 78.5533C42.7083 78.518 42.7073 78.4815 42.6983 78.4466C42.586 78.1041 42.4083 77.7868 42.1751 77.5124Z" fill="#FCCA92"/>
<path d="M47.765 49.9414C46.7355 49.3697 45.4082 49.3868 44.2851 48.9943C42.6941 48.4364 41.3178 47.392 40.3501 46.0082C40.1757 45.7607 39.7758 45.9783 39.9247 46.2513C40.787 47.7195 41.9987 48.9507 43.4513 49.8347C44.617 50.5557 46.4717 51.2212 47.7607 50.5471C47.8129 50.516 47.8562 50.4718 47.8864 50.419C47.9166 50.3661 47.9326 50.3064 47.9331 50.2455C47.9335 50.1846 47.9182 50.1246 47.8888 50.0713C47.8594 50.018 47.8167 49.9733 47.765 49.9414Z" fill="#FCCA92"/>
<path d="M49.5432 48.5679C48.8285 48.2991 47.999 48.4058 47.2502 48.2693C46.8248 48.1839 46.6079 48.8494 47.0588 48.9561C47.8586 49.1438 48.837 49.3827 49.6113 48.9561C49.6468 48.9334 49.6748 48.9007 49.6917 48.8621C49.7087 48.8235 49.7139 48.7807 49.7066 48.7392C49.6993 48.6976 49.6799 48.6591 49.6508 48.6287C49.6217 48.5982 49.5843 48.577 49.5432 48.5679Z" fill="#FCCA92"/>
</svg>
