<svg width="104" height="101" viewBox="0 0 104 101" fill="none" xmlns="http://www.w3.org/2000/svg">
<path opacity="0.3" d="M0.001235 39.6502C0.21139 19.523 58.0041 -5.66594 84.0634 1.13298C110.123 7.93191 114.266 97.8754 74.4263 100.841C34.5868 103.806 -0.238943 64.7493 0.001235 39.6502Z" fill="#40FFCD"/>
<g clip-path="url(#clip0_4604_405)">
<path d="M94.3123 58.1401C93.7992 58.8849 93.115 59.4947 92.3176 59.9179C91.5202 60.3411 90.6331 60.5653 89.7312 60.5715C88.8837 60.5792 88.0471 60.3795 87.2937 59.9898C86.5402 59.6001 85.8926 59.032 85.4068 58.3346C84.8983 57.5809 84.3608 55.6358 83.9104 53.2044C83.6713 54.4223 83.2724 55.6029 82.724 56.7153C81.4552 58.9425 79.3874 60.2165 77.0436 60.2165C76.0865 60.2232 75.1422 59.9956 74.2925 59.5533C73.4428 59.111 72.7133 58.4674 72.167 57.6782C71.552 56.7785 70.9177 54.459 70.3898 51.5024C69.9685 53.642 69.4503 55.3926 68.8741 56.3992C67.5181 58.7869 65.3002 60.1533 62.7918 60.1533C61.7687 60.1633 60.7587 59.9227 59.8491 59.4525C58.9394 58.9822 58.1577 58.2964 57.5714 57.4545C57.2524 56.9261 57.0018 56.3591 56.8256 55.7671C55.7215 58.393 53.8087 59.9005 51.5424 59.9005C50.6753 59.8717 49.8238 59.6613 49.0424 59.2828C48.261 58.9043 47.567 58.366 47.0048 57.7025C46.7521 57.4094 46.5268 57.0936 46.3317 56.7591C45.9875 57.2957 45.761 57.8999 45.6675 58.5312C45.574 59.1626 45.6155 59.8068 45.7893 60.4208C45.8091 60.484 45.8159 60.5506 45.8091 60.6165C45.8024 60.6824 45.7823 60.7462 45.7501 60.8041C45.7179 60.8619 45.6743 60.9125 45.6219 60.9528C45.5695 60.9931 45.5095 61.0222 45.4455 61.0384C45.4005 61.0447 45.3549 61.0447 45.3099 61.0384C45.1999 61.0419 45.0921 61.0076 45.004 60.9413C44.916 60.8751 44.8531 60.7806 44.8256 60.6736C44.5597 59.668 44.572 58.6085 44.8613 57.6094C45.1506 56.6103 45.7059 55.7093 46.4673 55.0036C49.6876 51.8428 54.908 50.8751 58.724 50.1749C63.1307 49.3628 65.6828 45.2488 65.5036 41.9081C65.46 40.9696 65.0968 38.7667 62.724 38.5625C58.7191 38.2221 40.5835 41.062 40.2881 41.1106C30.0557 42.9925 28.1913 63.5232 28.0121 65.8477C27.5278 72.0137 36.5641 87.526 42.8692 91.3871C45.4552 92.9675 53.1549 93.9936 62.4915 93.9936C73.7167 93.9936 86.6465 92.418 90.2348 88.9022C95.5181 83.7379 95.0823 66.0762 94.3123 58.1401ZM57.1646 85.2065C57.1224 85.2839 57.06 85.3484 56.9841 85.393C56.9081 85.4375 56.8216 85.4605 56.7336 85.4593C56.6453 85.4586 56.5586 85.4351 56.4818 85.3913C56.4237 85.3596 56.3727 85.3162 56.3318 85.264C56.291 85.2117 56.2613 85.1516 56.2445 85.0874C56.2277 85.0231 56.2242 84.9561 56.2342 84.8904C56.2442 84.8248 56.2675 84.7619 56.3026 84.7056C57.339 82.9112 57.5569 80.5382 56.9225 78.0193C56.3414 75.7192 55.1646 73.5844 54.0169 71.5177C53.7585 70.899 53.3195 70.3735 52.7578 70.0102C52.6384 69.9541 52.546 69.8527 52.5011 69.7282C52.4561 69.6037 52.4623 69.4664 52.5181 69.3464C52.574 69.2265 52.675 69.1338 52.799 69.0886C52.923 69.0435 53.0597 69.0496 53.1792 69.1057C54.0508 69.5142 54.5351 70.3895 54.8886 71.0509C56.0557 73.171 57.2663 75.3642 57.8813 77.7956C58.5884 80.5479 58.3317 83.1884 57.1646 85.2065ZM86.293 65.5608C84.477 67.0682 82.0315 67.2579 79.8813 67.3211C79.121 67.3211 78.3608 67.3551 77.6005 67.3551C74.9903 67.3551 72.3704 67.2287 69.7845 66.9758C65.8717 66.5917 61.4697 65.7942 58.4867 62.7744C58.4383 62.7289 58.3997 62.6739 58.3733 62.6129C58.347 62.5518 58.3334 62.4859 58.3334 62.4194C58.3334 62.3528 58.347 62.287 58.3733 62.2259C58.3997 62.1649 58.4383 62.1099 58.4867 62.0644C58.5319 62.0166 58.5864 61.9785 58.6467 61.9525C58.7071 61.9265 58.7721 61.9131 58.8378 61.9131C58.9034 61.9131 58.9684 61.9265 59.0288 61.9525C59.0892 61.9785 59.1436 62.0166 59.1888 62.0644C61.9491 64.8557 66.1428 65.6094 69.8765 65.9546C73.1898 66.2771 76.52 66.3908 79.8474 66.295C81.8329 66.2416 84.0799 66.0714 85.6586 64.7633C85.7607 64.6781 85.8923 64.6372 86.0244 64.6496C86.1566 64.6619 86.2784 64.7264 86.3632 64.8289C86.4479 64.9314 86.4887 65.0636 86.4764 65.1963C86.4642 65.329 86.3999 65.4513 86.2978 65.5364L86.293 65.5608Z" fill="#FFDCAD"/>
<path d="M84.4431 50.4081C84.9031 53.8704 85.5617 56.7589 86.2397 57.7558C86.6344 58.3182 87.1593 58.7758 87.7692 59.0892C88.3792 59.4026 89.0558 59.5625 89.7409 59.5551C90.6027 59.5403 91.4444 59.2915 92.1768 58.8352C92.9091 58.3789 93.5048 57.732 93.9007 56.9632C95.9394 53.3793 96.7772 38.5234 95.0823 36.0531C93.8959 34.3171 90.5254 32.7951 87.862 32.7951C86.905 32.7235 85.9571 33.0229 85.2131 33.6315C85.0709 33.7754 84.9502 33.9392 84.8547 34.1178C85.5956 38.0566 85.2954 45.0688 84.4431 50.4081Z" fill="#FFDCAD"/>
<path d="M70.9322 48.2346C71.4939 52.509 72.2881 56.088 73.0048 57.0946C73.4609 57.7467 74.0684 58.2775 74.7746 58.6409C75.4808 59.0044 76.2646 59.1897 77.0581 59.1807C78.0552 59.165 79.0293 58.8782 79.8769 58.3507C80.7245 57.8232 81.4139 57.0749 81.8717 56.1853C84.293 51.9546 85.2276 35.1537 83.2179 32.2214C81.8571 30.2228 77.9782 28.4722 74.9177 28.4722C73.5666 28.4722 72.4964 28.8077 71.8426 29.4447C71.4204 29.9164 71.118 30.4837 70.9612 31.0981C71.9249 34.7744 71.7554 42.2047 70.9322 48.2346Z" fill="#FFDCAD"/>
<path d="M57.1888 37.8429C59.0615 37.609 60.9489 37.5163 62.8353 37.5657C64.9951 37.7505 66.414 39.3941 66.5302 41.8595C66.7094 45.6234 63.8523 50.2479 58.9128 51.1572L57.6828 51.3906C57.6053 52.334 57.4988 53.1947 57.3632 53.929C57.5602 54.9615 57.9112 55.9582 58.4043 56.8856C58.9004 57.5919 59.5595 58.1671 60.3253 58.5617C61.0911 58.9564 61.9407 59.1588 62.8014 59.1517C64.9419 59.1517 66.845 57.9651 68.0169 55.9033C70.6174 51.342 71.6344 33.2232 69.4697 30.0527C67.983 27.9179 63.8039 26.002 60.4867 26.002C59.0339 26.002 57.8668 26.3667 57.1501 27.0572C56.4334 27.7477 55.9976 29.1239 55.7215 30.9474C56.4356 33.1918 56.9271 35.5015 57.1888 37.8429Z" fill="#FFDCAD"/>
<path d="M41.4116 39.9241C44.1719 39.5011 50.8741 38.5042 56.2106 37.9401C55.6683 33.9088 54.8305 30.5049 53.8281 29.4059C52.8256 28.3069 51.0823 27.7769 48.8886 27.7769C45.77 27.7769 42.6949 28.9196 41.4116 30.5584C40.2687 32.0172 40.5157 35.7227 41.4116 39.9241Z" fill="#FFDCAD"/>
<path d="M47.1646 55.7183C47.1017 55.7815 47.0436 55.8496 46.9806 55.9177C47.1959 56.3122 47.4507 56.6837 47.7409 57.0264C48.2123 57.5842 48.7932 58.0383 49.4473 58.3604C50.1014 58.6826 50.8146 58.8658 51.5424 58.8986C53.4358 58.8986 55.0533 57.5516 55.983 55.2029C56.3793 54.0323 56.6187 52.814 56.6949 51.5801C53.3826 52.2609 49.6005 53.3258 47.1646 55.7183Z" fill="#FFDCAD"/>
<path d="M40.1477 40.1233C29.1453 42.1462 27.2034 63.3675 27 65.7843C26.5157 72.3394 35.6683 88.1532 42.3317 92.2477C45.6441 94.2803 54.9225 95 62.4721 95C73.0629 95 86.8644 93.5947 90.9128 89.6509C96.8934 83.8156 96.0169 63.844 95.1404 56.6131C96.9564 51.867 97.8184 38.3289 95.8862 35.4988C94.5399 33.4759 90.8547 31.8079 87.862 31.8079C86.6629 31.7388 85.4819 32.126 84.5545 32.8923C84.438 32.4697 84.2602 32.0666 84.0266 31.6961C82.477 29.43 78.2978 27.5141 74.9031 27.5141C73.2905 27.5141 71.9976 27.9469 71.1404 28.7638C70.8511 29.0539 70.615 29.393 70.4431 29.7655C70.3898 29.6683 70.3365 29.571 70.2833 29.4884C68.6174 27.057 64.1332 25 60.4867 25C58.7579 25 57.368 25.4863 56.4576 26.3324C55.8329 26.9451 55.3729 28.0149 55.0436 29.4203C54.9093 29.1721 54.7468 28.9404 54.5593 28.7298C53.4116 27.4703 51.3971 26.7846 48.8886 26.7846C45.4988 26.7846 42.1089 28.083 40.6271 29.9455C39.3051 31.6377 39.5133 35.6252 40.4334 40.0844C40.3462 40.0844 40.2639 40.1087 40.1816 40.1282L40.1477 40.1233ZM48.8886 27.7767C51.0823 27.7767 52.8838 28.3699 53.8281 29.4057C54.7724 30.4415 55.6683 33.9086 56.2106 37.9399C50.8838 38.504 44.1719 39.5009 41.4116 39.9239C40.5157 35.7225 40.2688 32.017 41.4116 30.5582C42.6949 28.9194 45.77 27.7767 48.8886 27.7767ZM60.5109 26.0017C63.8039 26.0017 67.983 27.9177 69.46 30.0524C71.6247 33.223 70.6077 51.3418 68.0072 55.9031C66.8353 57.9649 64.9322 59.1514 62.7918 59.1514C61.931 59.1586 61.0814 58.9561 60.3156 58.5615C59.5499 58.1668 58.8907 57.5917 58.3947 56.8854C57.9016 55.958 57.5505 54.9613 57.3535 53.9288C57.4891 53.1945 57.5956 52.3338 57.6731 51.3904L58.9031 51.157C63.8426 50.2477 66.7094 45.6231 66.5206 41.8593C66.4043 39.3939 64.9855 37.7503 62.8257 37.5655C60.9425 37.5166 59.0583 37.6092 57.1888 37.8427C56.9306 35.5083 56.444 33.2052 55.7361 30.9667C56.0121 29.1237 56.4673 27.7232 57.1646 27.0764C57.862 26.4297 59.0194 26.0017 60.4867 26.0017H60.5109ZM74.9031 28.4915C77.9637 28.4915 81.8426 30.2421 83.2034 32.2407C85.2131 35.1584 84.2687 51.9739 81.8571 56.2046C81.3994 57.0942 80.71 57.8425 79.8624 58.37C79.0148 58.8975 78.0406 59.1843 77.0436 59.2001C76.2508 59.2045 75.4688 59.0151 74.7652 58.6482C74.0616 58.2814 73.4574 57.7481 73.0048 57.0945C72.3027 56.0684 71.5085 52.4894 70.9467 48.215C71.77 42.1851 71.9152 34.7548 70.9467 31.0931C71.1035 30.4787 71.4059 29.9115 71.8281 29.4397C72.4867 28.827 73.552 28.4915 74.9031 28.4915ZM87.862 32.7805C90.5254 32.7805 93.8959 34.3025 95.0823 36.0386C96.7772 38.5186 95.9395 53.3744 93.9007 56.9486C93.5049 57.7174 92.9091 58.3643 92.1768 58.8206C91.4444 59.2769 90.6027 59.5257 89.7409 59.5405C89.0558 59.5479 88.3792 59.388 87.7692 59.0746C87.1593 58.7612 86.6344 58.3036 86.2397 57.7412C85.5617 56.7687 84.9031 53.851 84.4431 50.3935C85.2954 45.0445 85.5859 38.042 84.8547 34.0983C84.9502 33.9197 85.0709 33.7559 85.2131 33.612C85.9578 33.0051 86.9056 32.7076 87.862 32.7805ZM42.8692 91.3967C36.5641 87.5356 27.5424 72.0233 28.0121 65.8475C28.1913 63.5134 30.0557 42.9924 40.3075 41.1007C40.6029 41.0521 58.7385 38.2122 62.7433 38.5526C65.1162 38.7569 65.4794 40.984 65.523 41.8982C65.6828 45.239 63.1307 49.3529 58.7433 50.165C54.908 50.875 49.6876 51.8427 46.4673 55.0035C45.7033 55.7115 45.1469 56.6159 44.8583 57.6189C44.5698 58.6218 44.5602 59.6849 44.8305 60.693C44.8579 60.7999 44.9209 60.8944 45.0089 60.9606C45.0969 61.0269 45.2048 61.0612 45.3148 61.0577C45.3597 61.064 45.4054 61.064 45.4503 61.0577C45.5143 61.0415 45.5744 61.0124 45.6267 60.9721C45.6791 60.9318 45.7227 60.8812 45.7549 60.8234C45.7871 60.7655 45.8072 60.7017 45.814 60.6358C45.8207 60.5699 45.814 60.5033 45.7942 60.4401C45.6204 59.8261 45.5788 59.1819 45.6724 58.5505C45.7659 57.9192 45.9923 57.315 46.3365 56.7784C46.5316 57.1129 46.757 57.4287 47.0097 57.7218C47.5718 58.3853 48.2658 58.9236 49.0472 59.3021C49.8286 59.6806 50.6801 59.891 51.5472 59.9198C53.8135 59.9198 55.7264 58.4123 56.8305 55.7864C57.0066 56.3784 57.2572 56.9454 57.5763 57.4738C58.1625 58.3157 58.9443 59.0015 59.8539 59.4718C60.7635 59.942 61.7736 60.1826 62.7966 60.1726C65.3051 60.1726 67.523 58.8062 68.8789 56.4185C69.4552 55.4071 69.9734 53.6613 70.3947 51.5217C70.9225 54.4783 71.5569 56.7978 72.1719 57.6975C72.7197 58.484 73.45 59.1247 74.2996 59.5645C75.1492 60.0042 76.0926 60.2296 77.0484 60.2213C79.3922 60.2213 81.46 58.9472 82.7288 56.72C83.276 55.6058 83.6733 54.4235 83.9104 53.2042C84.3608 55.66 84.8789 57.5808 85.4165 58.3345C85.9023 59.0318 86.5499 59.5999 87.3034 59.9896C88.0568 60.3794 88.8934 60.579 89.7409 60.5714C90.6428 60.5652 91.5299 60.341 92.3273 59.9178C93.1247 59.4946 93.8089 58.8848 94.322 58.14C95.0823 66.0761 95.5182 83.7378 90.2349 88.9118C86.6465 92.4276 73.7167 94.0031 62.4915 94.0031C53.1501 94.0031 45.4552 92.9771 42.8692 91.3967ZM56.6949 51.5801C56.6187 52.814 56.3793 54.0323 55.983 55.2028C55.0533 57.5516 53.4358 58.8986 51.5424 58.8986C50.8146 58.8657 50.1014 58.6825 49.4473 58.3604C48.7932 58.0383 48.2123 57.5842 47.7409 57.0264C47.4507 56.6837 47.1959 56.3122 46.9806 55.9177C47.0436 55.8496 47.1017 55.7815 47.1646 55.7183C49.6005 53.3258 53.3826 52.2609 56.6949 51.5801Z" fill="#D79054"/>
<path d="M54.8983 71.0312C54.5448 70.3893 54.0605 69.514 53.1888 69.0861C53.1297 69.0583 53.0657 69.0425 53.0005 69.0396C52.9352 69.0366 52.8701 69.0466 52.8087 69.069C52.7473 69.0913 52.6909 69.1256 52.6427 69.1698C52.5945 69.2141 52.5555 69.2674 52.5278 69.3268C52.5002 69.3862 52.4844 69.4505 52.4815 69.516C52.4786 69.5815 52.4885 69.6469 52.5108 69.7085C52.533 69.7702 52.5672 69.8268 52.6112 69.8752C52.6553 69.9236 52.7084 69.9628 52.7675 69.9906C53.3292 70.3538 53.7682 70.8794 54.0266 71.498C55.1646 73.5647 56.3414 75.6995 56.9322 77.9996C57.5666 80.5185 57.3486 82.8916 56.3123 84.6859C56.2772 84.7422 56.2539 84.8051 56.2439 84.8708C56.2339 84.9364 56.2374 85.0035 56.2542 85.0677C56.271 85.1319 56.3007 85.1921 56.3415 85.2443C56.3823 85.2966 56.4334 85.3399 56.4915 85.3716C56.5683 85.4155 56.655 85.4389 56.7433 85.4397C56.8312 85.4408 56.9178 85.4179 56.9938 85.3733C57.0697 85.3288 57.1321 85.2643 57.1743 85.1868C58.3414 83.1688 58.598 80.5283 57.9007 77.7565C57.276 75.3445 56.0557 73.1417 54.8983 71.0312Z" fill="#D79054"/>
<path d="M85.6537 64.7872C84.0847 66.0953 81.8377 66.2461 79.8426 66.319C76.5151 66.4148 73.1849 66.3011 69.8716 65.9786C66.138 65.6139 61.9443 64.8602 59.184 62.0884C59.1388 62.0405 59.0843 62.0025 59.0239 61.9764C58.9636 61.9504 58.8986 61.937 58.8329 61.937C58.7672 61.937 58.7022 61.9504 58.6419 61.9764C58.5815 62.0025 58.5271 62.0405 58.4818 62.0884C58.4334 62.1339 58.3949 62.1888 58.3685 62.2499C58.3421 62.3109 58.3285 62.3768 58.3285 62.4434C58.3285 62.5099 58.3421 62.5758 58.3685 62.6368C58.3949 62.6979 58.4334 62.7529 58.4818 62.7983C61.4649 65.8181 65.8668 66.6156 69.7796 66.9998C72.3656 67.2527 74.9854 67.3791 77.5956 67.3791C78.3559 67.3791 79.1162 67.3791 79.8765 67.3451C82.0266 67.2818 84.4721 67.0922 86.2881 65.5847C86.3387 65.5426 86.3805 65.4908 86.4111 65.4325C86.4418 65.3741 86.4607 65.3102 86.4667 65.2445C86.4728 65.1788 86.4659 65.1126 86.4465 65.0496C86.4271 64.9865 86.3955 64.9279 86.3535 64.8772C86.3115 64.8264 86.26 64.7844 86.2019 64.7537C86.1437 64.7229 86.0802 64.7039 86.0147 64.6978C85.9493 64.6917 85.8833 64.6986 85.8205 64.7181C85.7578 64.7377 85.6994 64.7694 85.6489 64.8115L85.6537 64.7872Z" fill="#D79054"/>
<path d="M82.7579 92.1065C86.1864 91.309 88.8789 90.2586 90.2349 88.931C95.5181 83.757 95.0775 66.0759 94.322 58.1593C93.8089 58.9041 93.1247 59.5138 92.3273 59.937C91.5299 60.3602 90.6428 60.5844 89.7409 60.5907C88.8934 60.5983 88.0568 60.3986 87.3034 60.0089C86.5499 59.6192 85.9023 59.0511 85.4165 58.3538C84.8983 57.5806 84.3608 55.6355 83.9104 53.2041C83.6713 54.4219 83.2724 55.6025 82.724 56.715C81.4552 58.9422 79.3874 60.2162 77.0436 60.2162C76.0865 60.2229 75.1422 59.9952 74.2925 59.5529C73.4428 59.1106 72.7133 58.467 72.1671 57.6778C71.552 56.7782 70.9177 54.4587 70.3898 51.5021C69.9685 53.6417 69.4503 55.3923 68.8741 56.3989C67.5181 58.7866 65.3002 60.153 62.7918 60.153C61.7687 60.163 60.7587 59.9224 59.8491 59.4521C58.9394 58.9819 58.1577 58.2961 57.5714 57.4541C57.2524 56.9258 57.0018 56.3588 56.8256 55.7668C55.7215 58.3927 53.8087 59.9001 51.5424 59.9001C50.6753 59.8713 49.8238 59.661 49.0424 59.2825C48.261 58.9039 47.567 58.3657 47.0048 57.7021C46.7521 57.4091 46.5268 57.0933 46.3317 56.7588C45.9875 57.2954 45.761 57.8995 45.6675 58.5309C45.574 59.1623 45.6155 59.8064 45.7893 60.4205C45.8091 60.4837 45.8159 60.5502 45.8091 60.6162C45.8024 60.6821 45.7823 60.7459 45.7501 60.8037C45.7179 60.8616 45.6743 60.9122 45.6219 60.9525C45.5695 60.9928 45.5095 61.0219 45.4455 61.038C45.4005 61.0444 45.3549 61.0444 45.3099 61.038C45.1999 61.0415 45.0921 61.0073 45.004 60.941C44.916 60.8747 44.8531 60.7803 44.8256 60.6733C44.5597 59.6677 44.572 58.6082 44.8613 57.6091C45.1506 56.6099 45.7059 55.709 46.4673 55.0033C49.6876 51.8425 54.908 50.8748 58.724 50.1745C63.1307 49.3624 65.6828 45.2485 65.5036 41.9078C65.4697 41.1735 65.2373 39.6806 64.0121 38.9561L64.7724 39.8508C63.707 44.0474 59.3632 46.4788 55.276 47.855C51.1888 49.2311 46.6901 50.1454 43.6489 53.2041C39.5036 57.3909 39.8039 65.1374 44.2687 68.9887C45.4746 70.0293 46.8983 70.7879 48.1428 71.7994C51.5908 74.615 53.2566 79.0936 54.0993 83.4701C54.3947 85.0068 54.9806 86.9324 56.5206 87.0783C58.0605 87.2242 59.0048 85.4541 59.3438 83.9467C60.0209 80.9368 59.9644 77.8073 59.1792 74.8241C58.6465 72.8206 58.0508 70.1412 59.8523 69.1346C60.8741 68.5559 62.1428 68.9304 63.2421 69.2707C68.223 70.7616 73.4428 71.2766 78.6174 70.7879C79.523 70.7004 80.4721 70.5934 81.3148 70.9436C82.111 71.3558 82.7805 71.9777 83.2518 72.7428C85.0629 75.1742 86.6416 77.9411 86.9564 80.9755C87.2809 84.2676 86.0218 87.5597 84.1283 90.2635C83.7264 90.9102 83.2518 91.5083 82.7579 92.1065ZM57.1646 85.2061C57.1224 85.2836 57.06 85.3481 56.9841 85.3926C56.9081 85.4372 56.8216 85.4601 56.7336 85.459C56.6453 85.4582 56.5586 85.4348 56.4818 85.3909C56.4237 85.3592 56.3727 85.3159 56.3318 85.2636C56.291 85.2114 56.2613 85.1513 56.2445 85.087C56.2277 85.0228 56.2242 84.9558 56.2342 84.8901C56.2442 84.8245 56.2675 84.7615 56.3026 84.7053C57.339 82.9109 57.5569 80.5379 56.9225 78.0189C56.3414 75.7188 55.1646 73.5841 54.0169 71.5174C53.7585 70.8987 53.3195 70.3732 52.7579 70.0099C52.6384 69.9538 52.5461 69.8523 52.5011 69.7279C52.4561 69.6034 52.4623 69.4661 52.5181 69.3461C52.574 69.2262 52.675 69.1334 52.799 69.0883C52.923 69.0432 53.0597 69.0493 53.1792 69.1054C54.0508 69.5139 54.5351 70.3892 54.8886 71.0505C56.0557 73.1707 57.2663 75.3638 57.8813 77.7952C58.5884 80.5476 58.3317 83.1881 57.1646 85.2061ZM86.293 65.5604C84.477 67.0679 82.0315 67.2575 79.8813 67.3208C79.121 67.3208 78.3608 67.3548 77.6005 67.3548C74.9903 67.3548 72.3704 67.2284 69.7845 66.9755C65.8717 66.5913 61.4697 65.7938 58.4867 62.774C58.4383 62.7286 58.3997 62.6736 58.3733 62.6125C58.347 62.5515 58.3334 62.4856 58.3334 62.4191C58.3334 62.3525 58.347 62.2867 58.3733 62.2256C58.3997 62.1645 58.4383 62.1096 58.4867 62.0641C58.5319 62.0163 58.5864 61.9782 58.6467 61.9522C58.7071 61.9261 58.7721 61.9127 58.8378 61.9127C58.9034 61.9127 58.9684 61.9261 59.0288 61.9522C59.0892 61.9782 59.1436 62.0163 59.1888 62.0641C61.9491 64.8553 66.1428 65.6091 69.8765 65.9543C73.1898 66.2768 76.52 66.3905 79.8474 66.2947C81.8329 66.2412 84.0799 66.071 85.6586 64.7629C85.7607 64.6778 85.8923 64.6369 86.0244 64.6492C86.1566 64.6615 86.2784 64.726 86.3632 64.8286C86.4479 64.9311 86.4887 65.0633 86.4764 65.1959C86.4642 65.3286 86.3999 65.451 86.2978 65.5361L86.293 65.5604Z" fill="#FCCA92"/>
<path d="M92.3753 58.3053C90.8353 58.0524 89.615 56.7686 88.9854 55.3292C88.3559 53.8899 88.2833 52.2803 88.2203 50.7144C87.9782 44.777 88.1428 38.679 90.1961 33.116C89.4335 32.907 88.6476 32.7959 87.8571 32.7853C86.9001 32.7138 85.9522 33.0131 85.2082 33.6217C85.0661 33.7656 84.9454 33.9294 84.8499 34.108C85.5811 38.0517 85.2905 45.0639 84.4382 50.4032C84.8983 53.8655 85.5569 56.754 86.2348 57.7509C86.6296 58.3133 87.1545 58.7709 87.7644 59.0843C88.3743 59.3977 89.051 59.5576 89.7361 59.5502C90.8639 59.5467 91.9493 59.118 92.7772 58.349C92.6368 58.3442 92.4915 58.3247 92.3753 58.3053Z" fill="#FCCA92"/>
<path d="M76.5157 29.6685C76.7265 29.333 76.9955 29.0382 77.3099 28.7981C76.5173 28.6024 75.7048 28.4996 74.8886 28.4917C73.5375 28.4917 72.4673 28.8272 71.8135 29.4643C71.3913 29.936 71.089 30.5032 70.9322 31.1176C71.9007 34.7793 71.7409 42.2097 70.9322 48.2395C71.4939 52.5091 72.2881 56.0881 73.0048 57.0947C73.4609 57.7468 74.0684 58.2775 74.7746 58.641C75.4808 59.0045 76.2646 59.1898 77.0581 59.1808C77.3388 59.1787 77.619 59.1543 77.8959 59.1079C77.7845 59.0349 77.6731 58.962 77.5666 58.8842C75.4891 57.3524 75 54.4736 74.8063 51.8915C74.3081 45.3471 74.6073 38.766 75.6973 32.2944C75.8027 31.3751 76.0804 30.4841 76.5157 29.6685Z" fill="#FCCA92"/>
<path d="M65.2566 58.5534C63.6368 57.8406 62.3556 56.5244 61.6828 54.882C61.1218 53.5323 60.7628 52.1066 60.6174 50.6514C60.0632 50.8693 59.489 51.0321 58.9031 51.1376L57.6731 51.3711C57.5956 52.3144 57.4891 53.1752 57.3535 53.9094C57.5505 54.9419 57.9015 55.9387 58.3946 56.866C58.8907 57.5724 59.5499 58.1475 60.3156 58.5421C61.0814 58.9368 61.931 59.1392 62.7917 59.1321C63.6468 59.1321 64.4902 58.9341 65.2566 58.5534Z" fill="#FCCA92"/>
<path d="M60.2203 37.5949C60.3629 34.8023 60.6587 32.0198 61.1065 29.26C61.2182 28.1648 61.5476 27.1033 62.075 26.1381C61.5484 26.0506 61.0156 26.005 60.4818 26.002C59.029 26.002 57.862 26.3667 57.1452 27.0572C56.4285 27.7477 55.9927 29.1239 55.7167 30.9474C56.4246 33.186 56.9112 35.4891 57.1695 37.8234C58.2978 37.731 59.3196 37.6435 60.2203 37.5949Z" fill="#FCCA92"/>
<path d="M41.4116 39.9239C42.3511 39.7829 43.7603 39.5883 45.4019 39.3306C45.0875 37.376 44.9465 35.3971 44.9806 33.4174C45.0194 31.4723 45.4019 29.2403 46.7579 27.9517C44.4431 28.331 42.3995 29.2987 41.431 30.5581C40.2687 32.017 40.5157 35.7224 41.4116 39.9239Z" fill="#FCCA92"/>
<path d="M53.1937 57.5176C51.7469 56.6382 50.6327 55.3003 50.0266 53.7148C48.9759 54.2312 48.0106 54.9069 47.1646 55.7183C47.1017 55.7815 47.0436 55.8496 46.9806 55.9177C47.1959 56.3122 47.4507 56.6837 47.7409 57.0264C48.2123 57.5842 48.7932 58.0383 49.4473 58.3604C50.1014 58.6826 50.8146 58.8658 51.5424 58.8986C52.4624 58.8944 53.3525 58.5696 54.0605 57.9795C53.7651 57.8288 53.4746 57.6829 53.1937 57.5176Z" fill="#FCCA92"/>
<path d="M94.5835 43.3621C94.5835 43.2211 94.3608 43.187 94.3414 43.3281C93.9056 46.1874 92.9419 49.5622 93.4116 52.4361C93.46 52.7279 93.8959 52.6792 93.954 52.4361C94.8305 49.674 94.4383 46.2457 94.5835 43.3621Z" fill="#FFF9DF"/>
<path d="M93.7022 54.3713C93.6392 53.8121 92.7966 53.7829 92.816 54.3713C92.8353 54.9597 92.6126 55.6357 92.7433 56.2727C92.7522 56.305 92.7683 56.3348 92.7904 56.3599C92.8125 56.385 92.8401 56.4046 92.871 56.4173C92.9018 56.43 92.9352 56.4354 92.9685 56.4331C93.0018 56.4308 93.0341 56.4208 93.0629 56.404C93.7409 55.9712 93.7845 55.0959 93.7022 54.3713Z" fill="#FFF9DF"/>
<path d="M82.3269 43.8675C82.293 43.4299 81.6247 43.4202 81.6392 43.8675C81.6844 45.1284 81.6423 46.3909 81.5133 47.6459C81.3874 48.8908 81.029 50.0773 81.1162 51.366C81.119 51.4024 81.133 51.4371 81.1564 51.4651C81.1798 51.4931 81.2113 51.5131 81.2465 51.5222C81.2818 51.5313 81.319 51.5291 81.3529 51.5159C81.3869 51.5027 81.4159 51.4792 81.4358 51.4486C82.6901 49.3479 82.506 46.226 82.3269 43.8675Z" fill="#FFF9DF"/>
<path d="M68.9322 45.9635C68.9322 44.3199 68.9709 42.6617 68.8208 41.0229C68.8208 40.8939 68.7698 40.7702 68.679 40.679C68.5882 40.5879 68.465 40.5366 68.3366 40.5366C68.2081 40.5366 68.085 40.5879 67.9941 40.679C67.9033 40.7702 67.8523 40.8939 67.8523 41.0229C67.7022 42.6617 67.7361 44.3199 67.7409 45.9635C67.7409 47.4223 67.5811 48.8812 68.0169 50.2865C68.0401 50.3518 68.0828 50.4082 68.1391 50.4481C68.1955 50.4881 68.2627 50.5095 68.3317 50.5095C68.4007 50.5095 68.468 50.4881 68.5243 50.4481C68.5807 50.4082 68.6233 50.3518 68.6465 50.2865C69.092 48.9055 68.9274 47.398 68.9322 45.9635Z" fill="#FFF9DF"/>
<path d="M68.8983 37.5996C68.9106 37.3885 68.881 37.177 68.8111 36.9775C68.7413 36.7779 68.6326 36.5943 68.4915 36.4374C68.4554 36.4033 68.4122 36.3776 68.365 36.3624C68.3179 36.3471 68.2679 36.3426 68.2187 36.3491C68.1696 36.3556 68.1225 36.373 68.0809 36.4001C68.0393 36.4271 68.0042 36.4631 67.9782 36.5055C67.8165 36.8457 67.7592 37.2266 67.8135 37.5996C67.7689 38.0328 67.8373 38.4702 68.0121 38.8688C68.0449 38.9231 68.0911 38.9681 68.1462 38.9993C68.2013 39.0305 68.2636 39.0468 68.3268 39.0468C68.3901 39.0468 68.4523 39.0305 68.5075 38.9993C68.5626 38.9681 68.6088 38.9231 68.6416 38.8688C68.8875 38.495 68.9795 38.0401 68.8983 37.5996Z" fill="#FFF9DF"/>
<path d="M56.3656 40.7408C55.1841 40.1529 53.8399 39.9816 52.5496 40.2545C50.279 40.5368 48.0277 40.9591 45.8087 41.5188C45.7162 41.5447 45.6361 41.6033 45.5834 41.6839C45.5306 41.7644 45.5087 41.8615 45.5217 41.957C45.5347 42.0525 45.5817 42.1401 45.6541 42.2035C45.7264 42.2669 45.8192 42.3018 45.9152 42.3018C49.3583 42.117 52.7772 40.9888 56.2252 41.2806C56.2921 41.2878 56.3594 41.2707 56.4147 41.2323C56.4701 41.1939 56.51 41.1368 56.527 41.0714C56.544 41.0061 56.537 40.9367 56.5074 40.876C56.4778 40.8153 56.4275 40.7674 56.3656 40.7408Z" fill="#FFF9DF"/>
<path d="M59.8474 40.0746C59.2518 39.53 58.4479 39.7294 57.7699 40.0163C57.6768 40.0421 57.5977 40.104 57.5501 40.1883C57.5024 40.2727 57.49 40.3726 57.5157 40.4661C57.5414 40.5596 57.603 40.639 57.687 40.6869C57.771 40.7348 57.8705 40.7472 57.9637 40.7214C58.5932 40.6193 59.2227 40.7214 59.8038 40.4053C59.8311 40.3887 59.8543 40.3662 59.8717 40.3394C59.8891 40.3126 59.9004 40.2822 59.9045 40.2505C59.9087 40.2187 59.9058 40.1865 59.8959 40.156C59.886 40.1256 59.8694 40.0978 59.8474 40.0746Z" fill="#FFF9DF"/>
<path d="M50.816 29.4592C50.7833 29.4515 50.7492 29.4534 50.7176 29.4647C50.686 29.476 50.6583 29.4962 50.6379 29.5229C50.6174 29.5496 50.6051 29.5816 50.6023 29.6152C50.5995 29.6488 50.6065 29.6824 50.6223 29.7121C50.9516 30.3832 51.4843 30.9278 51.8571 31.5746C52.2736 32.304 52.4625 33.1404 52.937 33.8309C53.0533 34.0011 53.3874 34.0205 53.4213 33.7628C53.6925 32.2262 52.2881 29.9504 50.816 29.4592Z" fill="#FFF9DF"/>
<path d="M53.799 35.1097C53.7832 35.0385 53.7405 34.9762 53.6799 34.936C53.6193 34.8957 53.5455 34.8806 53.474 34.8938C53.4025 34.907 53.339 34.9476 53.2966 35.0069C53.2543 35.0662 53.2365 35.1396 53.247 35.2118C53.1984 35.7718 53.3345 36.3322 53.6344 36.8068C53.7312 36.9235 53.8862 36.836 53.9346 36.729C54.0641 36.1887 54.0166 35.6208 53.799 35.1097Z" fill="#FFF9DF"/>
<path d="M38.5206 82.5027C37.9734 80.8445 36.5835 79.3176 35.7022 77.7907C34.5496 75.7872 33.3487 73.8178 32.1477 71.8435C32.0933 71.7707 32.014 71.7206 31.9251 71.7029C31.8361 71.6851 31.7438 71.701 31.6658 71.7474C31.5878 71.7938 31.5296 71.8675 31.5024 71.9543C31.4751 72.0411 31.4807 72.135 31.5182 72.2179C32.6901 74.5034 33.8717 76.7792 35.1017 79.0258C35.8717 80.4409 36.6029 82.2207 38.1864 82.8285C38.2318 82.8407 38.2795 82.8409 38.3249 82.8291C38.3704 82.8172 38.4119 82.7937 38.4456 82.7609C38.4793 82.728 38.5039 82.687 38.517 82.6417C38.5302 82.5965 38.5314 82.5486 38.5206 82.5027Z" fill="#FFF9DF"/>
<path d="M40.7239 85.4592C40.3423 85.0569 39.9363 84.6785 39.5084 84.3261C39.2179 84.0781 38.7094 84.404 38.9467 84.7638C39.2469 85.216 39.5617 85.6391 39.9152 86.067C40.2687 86.495 40.5641 86.9132 41.1501 86.9326C41.2096 86.9326 41.2668 86.9092 41.3093 86.8674C41.3519 86.8256 41.3764 86.7687 41.3777 86.7089C41.4019 86.1546 41.0678 85.8385 40.7239 85.4592Z" fill="#FFF9DF"/>
<path d="M50.322 76.8668C49.5178 75.6693 48.5382 74.6004 47.4164 73.6963C47.3147 73.6185 47.1792 73.7644 47.2469 73.8665C48.0024 75.0336 48.8499 76.1326 49.5908 77.3094C50.3317 78.4862 50.7336 80.1541 51.7554 81.0148C51.8056 81.0611 51.8679 81.0921 51.935 81.1042C52.0021 81.1162 52.0712 81.1087 52.1343 81.0827C52.1973 81.0567 52.2516 81.0131 52.2909 80.9572C52.3301 80.9012 52.3527 80.8352 52.3559 80.7668C52.3462 79.3712 51.0968 77.9561 50.322 76.8668Z" fill="#FCCA92"/>
<path d="M53.6344 84.0878C53.552 83.8581 53.4482 83.6367 53.3244 83.4265C53.0838 82.9291 52.7899 82.4595 52.4479 82.026C52.138 81.6418 51.5617 82.06 51.6683 82.4831C51.8186 82.9658 52.0031 83.4371 52.2203 83.8933C52.3172 84.117 52.4334 84.331 52.5496 84.5498C52.6658 84.7686 52.9661 84.8902 53.1695 85.0361C53.2144 85.0611 53.2649 85.0741 53.3162 85.0738C53.3676 85.0736 53.418 85.0602 53.4627 85.0348C53.5074 85.0094 53.5448 84.973 53.5715 84.929C53.5982 84.8849 53.6131 84.8347 53.615 84.7832C53.6598 84.5541 53.6663 84.3191 53.6344 84.0878Z" fill="#FCCA92"/>
</g>
<defs>
<clipPath id="clip0_4604_405">
<rect width="70" height="70" fill="white" transform="translate(27 25)"/>
</clipPath>
</defs>
</svg>
