<svg width="104" height="103" viewBox="0 0 104 103" fill="none" xmlns="http://www.w3.org/2000/svg">
<path opacity="0.3" d="M0.001235 41.4697C0.21139 21.2832 58.0041 -3.97999 84.0634 2.83896C110.123 9.65791 114.266 99.8663 74.4263 102.84C34.5868 105.814 -0.238943 66.6427 0.001235 41.4697Z" fill="#F72C27"/>
<g clip-path="url(#clip0_4604_473)">
<path d="M64.5838 4.58307C62.2336 8.74859 56.8577 35.3453 54.9975 45.5456C55.1259 46.4518 55.2354 47.2062 55.3162 47.7802C59.9452 47.0401 64.4886 46.5609 66.991 46.9642C66.4059 40.3221 66.5581 33.0775 68.4468 31.1845C69.1827 30.5021 70.132 30.0933 71.1348 30.0269C72.7475 20.8751 74.0653 11.2678 73.3517 7.54827C72.6096 3.71011 70.9016 1.42334 68.7751 1.42334C67.267 1.42334 65.7018 2.59993 64.5838 4.58307Z" fill="#FFDCAD"/>
<path d="M89.9695 58.4314C88.9371 60.3291 87.253 61.3966 85.3452 61.3966C84.5597 61.3984 83.7862 61.2045 83.095 60.8325C82.4037 60.4605 81.8166 59.9221 81.387 59.2664C80.9113 58.5594 80.4355 56.8183 80.0597 54.5742C79.8415 55.6661 79.49 56.7273 79.0131 57.7339C77.8475 59.8641 75.9445 61.0834 73.7799 61.0834C72.8949 61.0867 72.0231 60.8686 71.2444 60.4493C70.4657 60.0299 69.8048 59.4226 69.3221 58.6828C69.225 58.5311 69.1392 58.3725 69.0652 58.2084C67.9891 59.7663 66.5639 61.0528 64.9025 61.9659C58.6226 65.4103 51.2438 65.453 50.9346 65.453C50.8046 65.453 50.68 65.4015 50.5881 65.3098C50.4962 65.2182 50.4446 65.0939 50.4446 64.9643C50.4446 64.8347 50.4962 64.7104 50.5881 64.6188C50.68 64.5271 50.8046 64.4756 50.9346 64.4756C51.006 64.4756 58.3752 64.4329 64.4315 61.1119C68.4087 58.9295 70.4496 54.5125 70.1404 51.4999C70.0024 50.2711 69.4316 48.6817 67.462 48.1029C62.5523 46.6796 42.7232 51.2769 40.9011 51.7086C36.7574 55.822 32.5661 61.6765 33.0133 65.823C34.2264 77.0244 45.9488 95.9495 52.6092 97.4582C54.9628 97.8855 57.3537 98.0746 59.7454 98.0228C69.4363 98.0228 81.8866 96.1251 85.8685 92.5905C90.3929 88.5768 90.5261 87.8035 91.1493 84.0887C91.2778 83.3059 91.43 82.414 91.6251 81.3417C92.4909 77.0339 91.7059 63.9917 90.8924 55.4851C90.7119 56.5024 90.4017 57.4925 89.9695 58.4314ZM56.6673 87.2342C56.6281 87.3164 56.5659 87.3856 56.4883 87.4336C56.4107 87.4815 56.3209 87.5062 56.2296 87.5046C56.154 87.5054 56.0793 87.4891 56.0108 87.4572C55.9541 87.4303 55.9033 87.3924 55.8613 87.3459C55.8193 87.2993 55.787 87.2449 55.7662 87.1858C55.7454 87.1267 55.7366 87.064 55.7402 87.0015C55.7438 86.939 55.7598 86.8778 55.7872 86.8214C57.1797 83.9223 57.8699 80.7375 57.8022 77.5237C57.7344 74.3098 56.9106 71.1567 55.3971 68.3185C55.3658 68.2622 55.346 68.2002 55.3388 68.1362C55.3316 68.0722 55.3371 68.0074 55.355 67.9455C55.3729 67.8836 55.4028 67.8258 55.4431 67.7754C55.4834 67.7251 55.5332 67.6831 55.5898 67.652C55.6463 67.6208 55.7084 67.6011 55.7726 67.5939C55.8368 67.5867 55.9018 67.5921 55.9639 67.61C56.0259 67.6278 56.0839 67.6577 56.1344 67.6979C56.1849 67.738 56.2269 67.7877 56.2582 67.8441C57.8404 70.8203 58.6995 74.1255 58.7664 77.4934C58.8334 80.8613 58.1062 84.1978 56.6435 87.2342H56.6673ZM82.2624 65.4719C79.3794 66.862 75.5306 68.4941 71.3488 68.793C70.8731 68.8214 70.4211 68.8357 69.9596 68.8357C66.4867 68.8357 63.0946 68.0054 59.793 67.2036C59.7305 67.188 59.6717 67.1604 59.62 67.1221C59.5682 67.0839 59.5245 67.0359 59.4914 66.9808C59.4583 66.9257 59.4363 66.8647 59.4269 66.8012C59.4174 66.7376 59.4205 66.6729 59.4362 66.6106C59.4518 66.5483 59.4795 66.4897 59.5179 66.4381C59.5562 66.3864 59.6044 66.3429 59.6596 66.3098C59.7148 66.2768 59.776 66.2549 59.8397 66.2455C59.9034 66.236 59.9684 66.2392 60.0308 66.2548C63.6893 67.1467 67.481 68.0718 71.2822 67.8156C75.2975 67.5452 79.0321 65.9606 81.839 64.6085C81.8964 64.579 81.9593 64.5615 82.0238 64.557C82.0883 64.5526 82.153 64.5613 82.214 64.5826C82.275 64.6039 82.331 64.6374 82.3785 64.681C82.4261 64.7246 82.4643 64.7774 82.4907 64.8362C82.518 64.8928 82.5338 64.9543 82.537 65.017C82.5403 65.0798 82.5311 65.1425 82.5098 65.2017C82.4886 65.2608 82.4558 65.3152 82.4133 65.3616C82.3708 65.408 82.3195 65.4455 82.2624 65.4719Z" fill="#FFDCAD"/>
<path d="M54.36 47.9559C53.4561 41.6128 49.1268 11.5384 47.4712 6.04449C46.5578 3.0603 44.3694 0.977539 42.1809 0.977539C40.3018 0.977539 38.8127 2.47675 38.0991 5.09562C36.3864 11.3439 40.4778 45.8969 41.0629 50.6412C42.8375 50.2285 48.5464 48.9238 54.36 47.9559Z" fill="#FFDCAD"/>
<path d="M32.0379 65.9462C33.3129 77.6742 45.3207 96.7844 52.395 98.4117C54.8247 98.8591 57.2941 99.0563 59.7643 99C69.636 99 82.3717 97.0121 86.5392 93.3068C91.3252 89.0606 91.4965 88.0406 92.134 84.2356C92.2624 83.4576 92.4099 82.5751 92.6097 81.5171C93.5279 76.9294 92.6097 59.9494 91.5488 51.6848C92.2339 46.2051 92.2529 39.4112 91.035 37.5419C89.8171 35.6726 86.4774 34.0406 83.699 34.0406C82.6062 33.9795 81.5311 34.3358 80.6923 35.0369C80.5841 34.6563 80.424 34.2924 80.2166 33.9552C78.8417 31.8535 75.1784 30.0743 72.1289 29.9937C73.7322 20.8086 75.0357 11.2014 74.2935 7.35372C73.4753 3.03163 71.4058 0.441223 68.7749 0.441223C66.8719 0.441223 65.0403 1.77912 63.7273 4.10859C61.3485 8.34528 56.7766 31.1987 54.593 42.7654C53.0182 31.9341 49.8022 10.447 48.4083 5.75962C47.3569 2.31523 44.8449 0 42.1808 0C39.8258 0 37.9942 1.76489 37.1521 4.83922C35.33 11.4813 39.6831 47.4765 40.1256 51.068C37.861 53.3548 31.4385 60.3811 32.0379 65.9462ZM38.0989 5.09541C38.8125 2.47654 40.3016 0.977333 42.1808 0.977333C44.3882 0.977333 46.5576 3.06009 47.4568 6.04428C49.1266 11.5382 53.4417 41.6125 54.3598 47.9557C48.5605 48.9046 42.8516 50.2283 41.077 50.641C40.4871 45.8919 36.3862 11.3437 38.0989 5.09541ZM73.3516 7.54823C74.0652 11.2678 72.7474 20.8751 71.1346 30.0459C70.1318 30.1122 69.1826 30.521 68.4466 31.2035C66.5437 33.1012 66.4057 40.3506 66.9909 46.9831C64.4884 46.5799 59.9451 47.059 55.3161 47.7992C55.2352 47.2251 55.1258 46.4707 54.9973 45.5646C56.8575 35.3453 62.2334 8.74855 64.5836 4.58303C65.7016 2.59989 67.2668 1.4233 68.7749 1.4233C70.9015 1.4233 72.6094 3.71007 73.3516 7.54823ZM83.7133 35.0322C86.092 35.0322 89.1606 36.4555 90.2262 38.0923C91.7677 40.4644 90.9732 54.5598 89.1082 57.9615C88.2567 59.5224 86.8818 60.4191 85.3451 60.4191C84.7225 60.4216 84.1093 60.2684 83.5616 59.9733C83.0138 59.6782 82.5491 59.2507 82.2099 58.7301C81.5915 57.7812 80.9968 55.0438 80.5877 51.7607C81.3774 46.689 81.6486 40.0279 80.992 36.2847C81.0772 36.1111 81.1879 35.9512 81.3203 35.8102C81.9877 35.2531 82.8449 34.9744 83.7133 35.0322ZM91.663 81.3416C91.4489 82.4138 91.2967 83.3057 91.1872 84.0886C90.564 87.8034 90.4308 88.5767 85.9065 92.5904C81.9245 96.1202 69.4743 98.0227 59.7833 98.0227C57.3916 98.0745 55.0008 97.8853 52.6472 97.4581C45.9867 95.9494 34.2644 77.0243 33.0512 65.8229C32.604 61.6763 36.8096 55.8218 40.9296 51.6848C42.7564 51.253 62.5807 46.6463 67.4904 48.0791C69.46 48.6579 70.0309 50.2472 70.1688 51.476C70.4971 54.4887 68.4562 58.9056 64.4599 61.088C58.4037 64.4091 51.0344 64.4518 50.963 64.4518C50.8331 64.4518 50.7084 64.5033 50.6165 64.5949C50.5246 64.6865 50.473 64.8108 50.473 64.9404C50.473 65.07 50.5246 65.1943 50.6165 65.286C50.7084 65.3776 50.8331 65.4291 50.963 65.4291C51.2723 65.4291 58.6511 65.3864 64.9309 61.942C66.5923 61.0289 68.0175 59.7424 69.0937 58.1845C69.1676 58.3487 69.2535 58.5072 69.3506 58.6589C69.8332 59.3987 70.4941 60.006 71.2728 60.4254C72.0516 60.8448 72.9233 61.0628 73.8083 61.0596C75.9634 61.0596 77.8664 59.8403 79.0415 57.7101C79.5046 56.7047 79.8433 55.6468 80.0501 54.5598C80.4449 56.8039 80.9159 58.5451 81.3774 59.252C81.807 59.9078 82.3941 60.4461 83.0853 60.8181C83.7766 61.1902 84.5501 61.384 85.3356 61.3822C87.2386 61.3822 88.9275 60.3005 89.9598 58.417C90.4019 57.4795 90.7217 56.4893 90.9113 55.4707C91.7439 63.9916 92.5288 77.0337 91.663 81.3416ZM78.1471 57.2688C77.1575 59.0717 75.5685 60.1154 73.7845 60.1154C73.0621 60.1176 72.3507 59.9394 71.715 59.5972C71.0793 59.2549 70.5396 58.7595 70.1451 58.156C69.9644 57.8425 69.8192 57.5099 69.7121 57.1645C70.7456 55.4191 71.228 53.4038 71.0965 51.3811C70.8729 49.3363 69.7787 47.894 68.0185 47.2631C67.4048 40.8013 67.4286 33.6089 69.1412 31.8914C69.8977 31.1323 71.0728 30.9758 71.9243 30.9758C74.6932 30.9758 78.1947 32.622 79.4221 34.5008C81.2442 37.2857 80.3545 53.2409 78.1471 57.2688Z" fill="#D79054"/>
<path d="M80.5878 51.7607C80.9969 55.0438 81.5916 57.786 82.2101 58.7301C82.5492 59.2508 83.0139 59.6782 83.5617 59.9733C84.1094 60.2684 84.7227 60.4217 85.3452 60.4191C86.8819 60.4191 88.2568 59.5224 89.1084 57.9615C90.9733 54.5598 91.7678 40.4455 90.2264 38.0923C89.1607 36.4602 86.1159 35.0322 83.7134 35.0322C82.8492 34.9794 81.9977 35.2597 81.3347 35.815C81.2022 35.956 81.0916 36.1159 81.0064 36.2894C81.6487 40.028 81.3775 46.689 80.5878 51.7607Z" fill="#FFDCAD"/>
<path d="M71.9245 30.9756C71.0729 30.9756 69.8978 31.1321 69.1414 31.8912C67.4287 33.6087 67.4049 40.8011 68.0234 47.2534C69.7837 47.8844 70.8779 49.3267 71.1015 51.3715C71.2329 53.3942 70.7505 55.4094 69.717 57.1548C69.8241 57.5003 69.9693 57.8328 70.15 58.1464C70.5445 58.7499 71.0842 59.2453 71.7199 59.5875C72.3556 59.9298 73.067 60.1079 73.7894 60.1058C75.5735 60.1058 77.1625 59.0715 78.152 57.2592C80.3547 53.2313 81.2443 37.2761 79.4222 34.4864C78.1948 32.6219 74.6933 30.9756 71.9245 30.9756Z" fill="#FFDCAD"/>
<path d="M55.5969 67.673C55.5391 67.7019 55.4878 67.7423 55.4462 67.7916C55.4046 67.8409 55.3734 67.8982 55.3547 67.9599C55.336 68.0216 55.3302 68.0865 55.3374 68.1505C55.3447 68.2146 55.365 68.2765 55.3971 68.3325C56.9083 71.1689 57.7308 74.3194 57.7986 77.5305C57.8663 80.7417 57.1774 83.9239 55.7872 86.8212C55.7567 86.8784 55.7383 86.9412 55.7331 87.0058C55.7279 87.0704 55.736 87.1354 55.757 87.1968C55.7779 87.2581 55.8112 87.3145 55.8549 87.3625C55.8986 87.4105 55.9516 87.4491 56.0108 87.4759C56.0793 87.5078 56.154 87.5241 56.2296 87.5233C56.3209 87.5249 56.4107 87.5002 56.4883 87.4522C56.5659 87.4043 56.6281 87.3351 56.6673 87.2529C58.1255 84.2163 58.8486 80.8807 58.7784 77.5146C58.7081 74.1485 57.8466 70.8458 56.2629 67.8723C56.234 67.814 56.1934 67.7623 56.1435 67.7203C56.0937 67.6784 56.0358 67.6471 55.9733 67.6284C55.9109 67.6097 55.8452 67.604 55.7805 67.6117C55.7157 67.6194 55.6532 67.6403 55.5969 67.673Z" fill="#D79054"/>
<path d="M81.839 64.6037C79.0321 65.9558 75.2975 67.5404 71.2822 67.8109C67.4762 68.0671 63.6703 67.1419 60.0308 66.25C59.9047 66.2185 59.7711 66.2383 59.6596 66.3051C59.5481 66.3718 59.4677 66.48 59.4362 66.6058C59.4046 66.7316 59.4245 66.8648 59.4914 66.976C59.5583 67.0872 59.6668 67.1674 59.793 67.1988C63.0946 68.0006 66.4867 68.8309 69.9596 68.8309C70.4354 68.8309 70.8826 68.8309 71.3488 68.7882C75.5306 68.5035 79.3794 66.8905 82.2624 65.4672C82.3214 65.4408 82.3743 65.4027 82.418 65.3553C82.4618 65.3078 82.4953 65.252 82.5167 65.1911C82.5381 65.1303 82.5468 65.0658 82.5423 65.0015C82.5379 64.9372 82.5203 64.8745 82.4907 64.8172C82.463 64.7596 82.4238 64.7082 82.3757 64.6661C82.3275 64.624 82.2713 64.592 82.2104 64.572C82.1496 64.5521 82.0853 64.5446 82.0215 64.5501C81.9576 64.5555 81.8956 64.5737 81.839 64.6037Z" fill="#D79054"/>
<path d="M47.2524 49.2889C46.8147 48.2831 46.3294 47.2868 45.906 46.281C44.6168 43.1735 43.9888 39.8525 43.4417 36.5314C42.4236 30.3669 41.6751 24.1677 41.1962 17.9336C40.7585 12.3353 40.5634 6.59468 41.553 1.03906C39.9687 1.33796 38.7318 2.78023 38.0991 5.09547C36.3864 11.3438 40.4778 45.8967 41.0629 50.6411C42.0763 50.4038 44.3694 49.8772 47.2524 49.2889Z" fill="#FCCA92"/>
<path d="M69.836 1.62261C69.4981 1.49016 69.1381 1.42256 68.7751 1.42335C67.267 1.42335 65.7018 2.60469 64.5838 4.58782C62.2336 8.7486 56.8577 35.3453 54.9975 45.5456C55.1259 46.4518 55.2354 47.2062 55.3162 47.7802C58.0518 47.3438 60.7493 46.9974 63.0233 46.8741C63.2231 43.5246 62.8235 40.0849 62.7188 36.7117C62.519 30.2926 63.4229 23.902 64.5885 17.5683C65.6114 12.0459 66.9006 6.41439 69.836 1.62261Z" fill="#FCCA92"/>
<path d="M72.3099 54.2516C71.463 51.9601 71.2489 49.5072 71.1681 47.0402C71.0542 43.5551 71.1989 40.0664 71.601 36.6027C71.7078 35.0402 72.0827 33.5077 72.7095 32.0718C72.8788 31.7224 73.0794 31.3889 73.3089 31.0755C72.8515 30.9978 72.3885 30.9566 71.9245 30.9521C71.0729 30.9521 69.8978 31.1087 69.1414 31.8678C67.4287 33.609 67.4049 40.8014 68.0234 47.2537C69.7837 47.8847 70.8779 49.327 71.1015 51.3718C71.2329 53.3944 70.7505 55.4097 69.717 57.1551C69.8241 57.5006 69.9693 57.8331 70.15 58.1467C70.5445 58.7501 71.0842 59.2456 71.7199 59.5878C72.3556 59.9301 73.067 60.1082 73.7894 60.1061C74.6706 60.1078 75.5328 59.8503 76.2681 59.366C74.423 58.139 73.0325 56.3424 72.3099 54.2516Z" fill="#FCCA92"/>
<path d="M86.3062 59.3329C84.0226 57.3592 83.7753 53.9765 83.6896 50.9639C83.6135 48.1173 83.5358 45.2707 83.4565 42.4241C83.3899 39.8811 83.4565 37.0013 85.1216 35.1652C84.6517 35.0711 84.1737 35.0234 83.6944 35.0229C82.8302 34.9702 81.9787 35.2504 81.3157 35.8057C81.1832 35.9467 81.0726 36.1066 80.9874 36.2801C81.6439 40.0234 81.3727 46.6845 80.583 51.7562C80.9921 55.0392 81.5868 57.7815 82.2053 58.7256C82.5444 59.2462 83.0092 59.6737 83.5569 59.9687C84.1047 60.2638 84.7179 60.4171 85.3405 60.4146C85.9716 60.408 86.5913 60.2449 87.1435 59.9401C86.8525 59.7546 86.5729 59.5518 86.3062 59.3329Z" fill="#FCCA92"/>
<path d="M89.9695 58.4311C88.9371 60.3288 87.253 61.3963 85.3453 61.3963C84.5598 61.3981 83.7863 61.2043 83.095 60.8322C82.4038 60.4602 81.8167 59.9219 81.3871 59.2661C80.9113 58.5592 80.4356 56.818 80.0597 54.5739C79.8416 55.6658 79.4901 56.727 79.0131 57.7337C77.8475 59.8639 75.9445 61.0832 73.7799 61.0832C72.8949 61.0864 72.0232 60.8684 71.2445 60.449C70.4657 60.0296 69.8048 59.4223 69.3222 58.6825C69.2251 58.5308 69.1392 58.3723 69.0653 58.2081C67.9892 59.766 66.5639 61.0525 64.9025 61.9656C58.6227 65.41 51.2439 65.4527 50.9346 65.4527C50.8047 65.4527 50.68 65.4012 50.5881 65.3096C50.4962 65.2179 50.4446 65.0936 50.4446 64.964C50.4446 64.8344 50.4962 64.7101 50.5881 64.6185C50.68 64.5268 50.8047 64.4754 50.9346 64.4754C51.006 64.4754 58.3753 64.4327 64.4315 61.1116C68.4087 58.9292 70.4497 54.5123 70.1405 51.4996C70.0734 50.7783 69.83 50.0843 69.4316 49.4785C69.0415 53.4211 65.8064 56.818 62.0909 58.4453C58.009 60.2387 53.4228 60.3857 48.9746 60.6989C47.0097 60.8365 44.4883 61.5623 44.4217 63.5455C44.3789 64.779 45.416 65.7421 46.3009 66.6056C49.0205 69.3089 51.0291 72.6397 52.1487 76.3027C53.2682 79.9656 53.464 83.8475 52.7187 87.604C52.4903 88.6904 52.2429 89.9761 53.0374 90.7637C54.2553 91.9593 56.2344 90.5597 57.2145 89.1649C59.3745 86.0847 60.9054 82.6107 61.7198 78.9408C62.1146 77.1617 62.4381 75.1786 63.8559 74.0399C65.5638 72.6688 68.0282 73.1385 70.2166 73.167C73.071 73.2049 75.8875 72.3652 78.7467 72.128C81.6059 71.8907 84.7839 72.3936 86.6678 74.5523C87.8524 75.9139 88.352 77.7453 88.5185 79.5434C88.9942 84.5059 87.0912 89.4685 84.2368 93.5629C84.1559 93.6767 84.0703 93.7811 83.9894 93.895C84.6708 93.5497 85.3095 93.1261 85.8924 92.633C90.4167 88.6193 90.5499 87.8459 91.1731 84.1311C91.3016 83.3483 91.4538 82.4564 91.6489 81.3842C92.5147 77.0763 91.7298 64.0341 90.9162 55.5275C90.7246 56.5313 90.4065 57.5069 89.9695 58.4311ZM56.6674 87.2339C56.6281 87.3161 56.566 87.3853 56.4884 87.4333C56.4108 87.4812 56.321 87.5059 56.2297 87.5043C56.1541 87.5051 56.0793 87.4889 56.0108 87.4569C55.9541 87.43 55.9033 87.3922 55.8613 87.3456C55.8193 87.299 55.787 87.2446 55.7662 87.1855C55.7454 87.1264 55.7366 87.0638 55.7402 87.0012C55.7438 86.9387 55.7598 86.8775 55.7872 86.8212C57.1798 83.922 57.87 80.7372 57.8022 77.5234C57.7344 74.3095 56.9106 71.1565 55.3971 68.3183C55.3659 68.2619 55.3461 68.1999 55.3389 68.1359C55.3316 68.0719 55.3371 68.0071 55.355 67.9452C55.3729 67.8833 55.4029 67.8255 55.4431 67.7751C55.4834 67.7248 55.5333 67.6828 55.5898 67.6517C55.6463 67.6205 55.7085 67.6008 55.7727 67.5936C55.8369 67.5864 55.9018 67.5919 55.9639 67.6097C56.026 67.6275 56.0839 67.6574 56.1344 67.6976C56.1849 67.7377 56.227 67.7874 56.2582 67.8438C57.8404 70.82 58.6996 74.1252 58.7665 77.4931C58.8334 80.861 58.1063 84.1975 56.6436 87.2339H56.6674ZM82.2624 65.4717C79.3794 66.8618 75.5306 68.4938 71.3488 68.7927C70.8731 68.8212 70.4211 68.8354 69.9597 68.8354C66.4867 68.8354 63.0947 68.0051 59.793 67.2033C59.7305 67.1878 59.6717 67.1601 59.62 67.1218C59.5683 67.0836 59.5246 67.0356 59.4914 66.9805C59.4583 66.9254 59.4364 66.8644 59.4269 66.8009C59.4174 66.7374 59.4206 66.6726 59.4362 66.6103C59.4518 66.548 59.4796 66.4894 59.5179 66.4378C59.5563 66.3862 59.6044 66.3426 59.6596 66.3096C59.7149 66.2765 59.7761 66.2547 59.8398 66.2452C59.9035 66.2357 59.9684 66.2389 60.0309 66.2545C63.6894 67.1464 67.481 68.0716 71.2822 67.8154C75.2975 67.5449 79.0321 65.9603 81.839 64.6082C81.8965 64.5787 81.9594 64.5612 82.0238 64.5568C82.0883 64.5523 82.153 64.561 82.214 64.5823C82.275 64.6036 82.331 64.6371 82.3786 64.6807C82.4262 64.7243 82.4643 64.7771 82.4908 64.8359C82.5181 64.8925 82.5338 64.954 82.5371 65.0167C82.5404 65.0795 82.5311 65.1422 82.5099 65.2014C82.4886 65.2605 82.4558 65.3149 82.4133 65.3613C82.3709 65.4077 82.3196 65.4452 82.2624 65.4717Z" fill="#FCCA92"/>
<path d="M45.7252 5.64116C45.2495 4.61164 44.6548 3.6343 43.5178 3.29271C43.488 3.28396 43.4561 3.2855 43.4273 3.29706C43.3985 3.30862 43.3744 3.32954 43.359 3.35643C43.3436 3.38332 43.3377 3.41461 43.3424 3.44524C43.347 3.47586 43.3619 3.50403 43.3846 3.52518C45.2542 5.3138 45.102 8.24105 46.848 10.0297C46.8809 10.0554 46.9202 10.0718 46.9617 10.0772C47.0032 10.0826 47.0454 10.0767 47.0839 10.0602C47.1223 10.0437 47.1556 10.0172 47.1802 9.98341C47.2048 9.94966 47.2199 9.90992 47.2238 9.86836C47.2238 8.41659 46.3294 6.93162 45.7252 5.64116Z" fill="#FFF9DF"/>
<path d="M47.4046 11.3866C47.3856 11.3187 47.3404 11.261 47.2789 11.2263C47.2173 11.1916 47.1444 11.1827 47.0763 11.2016C47.0082 11.2205 46.9504 11.2656 46.9156 11.327C46.8808 11.3883 46.8718 11.461 46.8908 11.529C47.0287 12.2406 47.1001 13.199 47.6091 13.754C47.6398 13.7835 47.6776 13.8046 47.7189 13.8152C47.7601 13.8258 47.8034 13.8256 47.8446 13.8146C47.8857 13.8036 47.9233 13.7822 47.9538 13.7525C47.9842 13.7228 48.0064 13.6857 48.0183 13.6449C48.142 12.9143 47.6995 12.084 47.4046 11.3866Z" fill="#FFF9DF"/>
<path d="M71.5439 4.64923C71.4872 4.59606 71.4149 4.56254 71.3376 4.55365C71.2603 4.54475 71.1822 4.56096 71.1149 4.59985C71.0476 4.63874 70.9946 4.69825 70.9639 4.76954C70.9332 4.84083 70.9264 4.9201 70.9445 4.99556C71.1681 5.78312 71.4725 6.53747 71.6486 7.33926C71.8103 8.04617 71.7104 8.84796 72.1243 9.4837C72.1472 9.52414 72.1792 9.5587 72.2178 9.58466C72.2564 9.61061 72.3005 9.62724 72.3467 9.63323C72.3929 9.63921 72.4398 9.63439 72.4838 9.61914C72.5278 9.60389 72.5676 9.57864 72.6 9.54538C73.5943 8.23594 72.5763 5.69298 71.5439 4.64923Z" fill="#FFF9DF"/>
<path d="M78.1472 34.8517L77.7952 34.439C77.5526 34.1543 77.3194 33.808 76.9436 33.7321C76.9016 33.7214 76.8577 33.7203 76.8152 33.7288C76.7727 33.7372 76.7326 33.7551 76.6979 33.781C76.6633 33.807 76.6348 33.8403 76.6148 33.8786C76.5947 33.917 76.5835 33.9593 76.582 34.0025C76.6124 34.3461 76.7622 34.6682 77.0054 34.9134L77.3242 35.3451C77.3807 35.4373 77.4577 35.5152 77.5493 35.5728C77.6409 35.6304 77.7446 35.6661 77.8523 35.6773C77.901 35.6894 77.9519 35.6904 78.0011 35.6802C78.0503 35.67 78.0966 35.6488 78.1364 35.6182C78.1762 35.5876 78.2085 35.5485 78.231 35.5036C78.2535 35.4588 78.2655 35.4095 78.2662 35.3594C78.2857 35.2713 78.2852 35.1799 78.2646 35.0921C78.244 35.0042 78.2039 34.9221 78.1472 34.8517Z" fill="#FFF9DF"/>
<path d="M78.0664 36.9253C77.976 36.7498 77.7428 36.8779 77.7714 37.0487C77.9895 38.1302 78.131 39.2257 78.1948 40.327C78.2329 41.4514 77.9094 42.5616 77.9855 43.6765C77.9881 43.7423 78.0117 43.8056 78.053 43.857C78.0943 43.9084 78.151 43.9454 78.2148 43.9623C78.2786 43.9793 78.3462 43.9754 78.4077 43.9513C78.4691 43.9272 78.5212 43.8841 78.5564 43.8283C79.622 41.8879 79.0559 38.7709 78.0664 36.9253Z" fill="#FFF9DF"/>
<path d="M88.2901 38.5478C88.1902 38.4292 88.0189 38.581 88.0855 38.7044C88.5781 39.7077 88.8874 40.7905 88.999 41.9021C89.1084 42.8509 88.9038 43.7998 89.2083 44.7107C89.2606 44.872 89.5033 44.9859 89.6317 44.8246C91.0922 42.9553 89.5651 40.085 88.2901 38.5478Z" fill="#FFF9DF"/>
<path d="M59.8643 49.4836C58.2706 48.9 56.4009 49.4266 54.7501 49.6781C52.537 49.9657 50.3714 50.5415 48.3085 51.3908C47.8708 51.5853 48.2038 52.1926 48.6177 52.1167C50.5207 51.7751 52.3523 51.2485 54.241 50.9021C56.1298 50.5558 58.2421 50.7645 59.9214 49.9153C59.9613 49.8915 59.9933 49.8567 60.0135 49.815C60.0337 49.7733 60.0412 49.7266 60.0351 49.6807C60.0291 49.6348 60.0097 49.5917 59.9793 49.5567C59.949 49.5216 59.909 49.4962 59.8643 49.4836Z" fill="#FFF9DF"/>
<path d="M64.0509 49.0468C63.2564 48.6056 61.9719 48.8475 61.1488 49.1085C60.754 49.2366 60.6731 49.9197 61.1488 49.9909C62.0623 50.1332 63.3563 50.1854 64.1222 49.5876C64.1592 49.5501 64.187 49.5047 64.2038 49.4549C64.2205 49.405 64.2256 49.352 64.2187 49.2999C64.2118 49.2478 64.1931 49.1979 64.1641 49.154C64.135 49.1102 64.0963 49.0735 64.0509 49.0468Z" fill="#FFF9DF"/>
<path d="M46.0963 88.2446C45.3637 86.5272 43.8936 85.1228 42.8089 83.6189C41.5577 81.8825 40.5491 79.999 39.4787 78.1629C39.374 77.9874 39.0743 78.1012 39.1457 78.3005C39.8684 80.34 40.8145 82.2939 41.9669 84.1265C42.9183 85.7443 44.0554 87.6611 45.7157 88.6526C45.9726 88.7997 46.2057 88.4818 46.0963 88.2446Z" fill="#FFF9DF"/>
<path d="M48.8318 90.9724C48.3561 90.498 47.9374 89.9856 47.5188 89.4732C47.2571 89.1553 46.7766 89.5633 46.9622 89.9002C47.2788 90.4625 47.64 90.9987 48.0421 91.5038C48.4512 92.0067 48.8366 92.557 49.5122 92.6377C49.712 92.6614 49.8166 92.4384 49.7881 92.2818C49.6882 91.7125 49.2124 91.3709 48.8318 90.9724Z" fill="#FFF9DF"/>
<path d="M49.9451 76.474C49.3932 73.542 47.2524 71.0797 45.1876 69.0111C44.8689 68.6885 44.4264 69.1582 44.7119 69.4856C46.5578 71.7629 47.7995 74.4102 49.6501 76.6495C49.7595 76.8203 49.9784 76.6448 49.9451 76.474Z" fill="#FCCA92"/>
<path d="M50.9679 79.4488C50.8507 78.7659 50.6411 78.1019 50.3447 77.4752C50.2992 77.3705 50.2174 77.2857 50.1142 77.2363C50.0111 77.1868 49.8936 77.1761 49.7832 77.2061C49.6728 77.2361 49.5769 77.3047 49.5132 77.3995C49.4494 77.4942 49.422 77.6087 49.436 77.7219C49.4435 78.3386 49.5347 78.9514 49.7072 79.5437C49.8356 80.0988 49.9879 80.7156 50.5112 81.024C50.5707 81.0569 50.6408 81.0655 50.7065 81.0477C50.7723 81.03 50.8285 80.9875 50.8632 80.9291C50.9795 80.702 51.0487 80.4539 51.0667 80.1996C51.0846 79.9452 51.0511 79.6899 50.9679 79.4488Z" fill="#FCCA92"/>
</g>
<defs>
<clipPath id="clip0_4604_473">
<rect width="61" height="99" fill="white" transform="translate(32)"/>
</clipPath>
</defs>
</svg>
